<svg xmlns="http://www.w3.org/2000/svg" viewBox="0 0 390.14 63.53">
  <defs>
    <style>
      .cls-1{fill:#fff}.cls-2{fill:#f3828b}.cls-3{fill:#444545}.cls-4{fill:#444445}.cls-5{fill:#f4848c}.cls-7{fill:#a6d3f1}
    </style>
  </defs>
  <g id="Layer_2" data-name="Layer 2">
    <g id="Layer_1-2" data-name="Layer 1">
      <g id="Camera">
        <path d="M83.2 30.73h31.11V46.8H83.2z" class="cls-1"/>
        <path d="M83.2 34.63h8.05v8.05H83.2zM106.27 34.63h8.05v8.05h-8.05z" class="cls-2"/>
        <path d="M114.31 47.79H83.2a1 1 0 01-1-1V30.73a1 1 0 011-1h31.11a1 1 0 011 1v16.06a1 1 0 01-1 1zm-30.11-2h29.11V31.73H84.2z" class="cls-3"/>
        <path d="M114.31 43.9H83.2a1 1 0 01-1-1v-8.27a1 1 0 011-1h31.11a1 1 0 011 1v8.27a1 1 0 01-1 1zm-30.11-2h29.11v-6.27H84.2z" class="cls-3"/>
        <circle cx="98.76" cy="38.76" r="8.03" class="cls-1"/>
        <path d="M98.76 47.79a9 9 0 119-9 9 9 0 01-9 9zm0-16.06a7 7 0 107 7 7 7 0 00-7-7z" class="cls-3"/>
        <path d="M98.76 43.9a5.14 5.14 0 115.13-5.14 5.15 5.15 0 01-5.13 5.14zm0-8.27a3.14 3.14 0 103.13 3.13 3.14 3.14 0 00-3.13-3.13z" class="cls-3"/>
        <path d="M107.79 27.61h4.27v3.12h-4.27z" class="cls-1"/>
        <path d="M112.06 31.73h-4.27a1 1 0 01-1-1v-3.12a1 1 0 011-1h4.27a1 1 0 011 1v3.12a1 1 0 01-1 1zm-3.27-2h2.27v-1.12h-2.27z" class="cls-3"/>
        <path d="M85.03 27.61h9.6v3.12h-9.6z" class="cls-1"/>
        <path d="M94.62 31.73H85a1 1 0 01-1-1v-3.12a1 1 0 011-1h9.59a1 1 0 011 1v3.12a1 1 0 01-.97 1zm-8.59-2h7.59v-1.12H86z" class="cls-3"/>
        <path d="M98.76 25.74h-3.58l-1.74 4.99h10.64l-1.75-4.99h-3.57" class="cls-1"/>
        <path d="M104.07 31.73H93.44a1 1 0 01-.94-1.33l1.74-5a1 1 0 01.94-.67h7.15a1 1 0 011 .67l1.74 5a1 1 0 01-.13.91 1 1 0 01-.87.42zm-9.22-2h7.82l-1-3h-5.78z" class="cls-3"/>
      </g>
      <g id="Shelf">
        <path d="M118.19 54.24H1a1 1 0 01-1-1v-4.75a1 1 0 011-1h117.19a1 1 0 011 1v4.75a1 1 0 01-1 1zM2 52.24h115.19v-2.75H2z" class="cls-4"/>
        <path d="M5.75 59a1 1 0 01-1-1v-4.76a1 1 0 012 0V58a1 1 0 01-1 1zM113.44 59a1 1 0 01-1-1v-4.76a1 1 0 012 0V58a1 1 0 01-1 1z" class="cls-4"/>
      </g>
      <g id="Books_Vertical_" data-name="Books (Vertical)">
        <path d="M23.76 20.63h4.56v23.3h-4.56z" class="cls-1"/>
        <path d="M23.76 43.93h4.56v4.56h-4.56z" class="cls-5"/>
        <path d="M28.32 49.49h-4.56a1 1 0 01-1-1v-27.9a1 1 0 011-1h4.56a1 1 0 011 1v27.9a1 1 0 01-1 1zm-3.56-2h2.56v-25.9h-2.56z" class="cls-3"/>
        <path d="M28.32 44.93h-4.56a1 1 0 110-2h4.56a1 1 0 010 2z" class="cls-3"/>
        <path d="M43.19 15.46h8.25v33.03h-8.25z" class="cls-1"/>
        <path d="M51.67 49.49h-8.73a1 1 0 01-1-1V15.21a1 1 0 011-1h8.73a1 1 0 011 1v33.28a1 1 0 01-1 1zm-7.73-2h6.73V16.21h-6.73z" class="cls-3"/>
        <path d="M51.67 37.22a5.37 5.37 0 110-10.73 1 1 0 011 1v8.73a1 1 0 01-1 1zm-1-8.58a3.37 3.37 0 000 6.43zM74.07 45.4L60.94 6.9a1 1 0 00-.5-.57 1 1 0 00-.77 0l-5.94 2a1 1 0 00-.62 1.27l13.12 38.47a1 1 0 00.51.58 1 1 0 00.44.1 1.13 1.13 0 00.32 0l6-2a1 1 0 00.57-1.35zm-6.27 1.08L55.32 9.88l4-1.38 12.53 36.6z" class="cls-3"/>
        <path d="M61.44 8.16h4.28v38.67h-4.28z" class="cls-1" transform="rotate(-18.82 63.578 27.493)"/>
        <path fill="#90d1b8" d="M58.42 15.26h6.28v12.56h-6.28z" transform="rotate(-18.83 61.553 21.546)"/>
        <path d="M60.61 29.5a1 1 0 01-.44-.1 1 1 0 01-.5-.58l-4.06-11.88a1 1 0 010-.77 1 1 0 01.58-.5l5.94-2a1 1 0 011.27.62l4 11.89a1 1 0 01-.62 1.27l-5.94 2a1.26 1.26 0 01-.23.05zm-2.78-12.26l3.41 10 4.05-1.38-3.41-10z" class="cls-3"/>
        <path d="M12.48 19.63h7v21.86h-7z" class="cls-1"/>
        <path d="M12.48 12.63h7v7h-7zM12.48 41.49h7v7h-7z" class="cls-7"/>
        <path d="M19.48 49.49h-7a1 1 0 01-1-1V12.63a1 1 0 011-1h7a1 1 0 011 1v35.86a1 1 0 01-1 1zm-6-2h5V13.63h-5z" class="cls-3"/>
        <path d="M19.48 20.63h-7a1 1 0 010-2h7a1 1 0 010 2zM19.48 42.49h-7a1 1 0 110-2h7a1 1 0 010 2z" class="cls-3"/>
        <path d="M32.54 5.68h6.28v42.81h-6.28z" class="cls-1"/>
        <path fill="#f9f5b3" d="M32.54 14.46h6.28V33.3h-6.28z"/>
        <path d="M38.82 49.49h-6.28a1 1 0 01-1-1V5.54a1 1 0 011-1h6.28a1 1 0 011 1v43a1 1 0 01-1 .95zm-5.28-2h4.28V6.54h-4.28z" class="cls-3"/>
        <path d="M38.82 15.46h-6.28a1 1 0 010-2h6.28a1 1 0 010 2zM38.82 34.3h-6.28a1 1 0 010-2h6.28a1 1 0 110 2z" class="cls-3"/>
      </g>
      <g id="Red_Trees" data-name="Red Trees">
        <path d="M130.62 19.44h43.01v43.01h-43.01z" class="cls-1"/>
        <path d="M173.66 18.7h-43.25a.79.79 0 00-.79.79v43.25a.79.79 0 00.79.79h43.25a.79.79 0 00.79-.79V19.49a.79.79 0 00-.79-.79zm-.79 43.3H131.2V20.28h41.67z" class="cls-4"/>
        <path d="M134.99 24.07h34.1v34.1h-34.1z" class="cls-5"/>
        <path d="M157.88 59a.79.79 0 01-.79-.79v-5.1a.79.79 0 111.58 0v5.1a.79.79 0 01-.79.79zM156.05 49.56l-.72-1.69-.44-1-.42-1-5.41-12.56a.8.8 0 00-.73-.47.79.79 0 00-.73.47l-7 16.24a.77.77 0 00.06.75.81.81 0 00.67.35h14a.79.79 0 00.72-1.1zm-13.51-.48l5.79-13.45 5.28 12.24.42 1 .1.21z" class="cls-1"/>
        <path d="M152.23 53.06l5.65-13.11 5.65 13.11h-11.3z" class="cls-5"/>
        <path d="M164.25 52.74l-5.64-13.1a.8.8 0 00-1.46 0l-2.68 6.24-.86 2-.53 1.21-.68 1.58-.89 2.08a.77.77 0 00.07.75.78.78 0 00.65.36h11.3a.78.78 0 00.65-.36.77.77 0 00.07-.76zm-10.82-.47l.7-1.61 1.2-2.79 2.55-5.87 4.45 10.32zM148.33 59a.79.79 0 01-.79-.79v-8.34a.79.79 0 111.58 0v8.29a.79.79 0 01-.79.84z" class="cls-1"/>
        <path d="M169.65 20.05a.82.82 0 01-.56.23.8.8 0 01-.56-.23L152 3.56l-.46.46-.6.61L136.9 18.7l-1.35 1.35a.8.8 0 01-1.13-1.12l16-16 .8-.79a.72.72 0 00-.07.33.86.86 0 001.71 0 .72.72 0 00-.07-.33l.8.8.61.6 15.22 15.16.23.23a.79.79 0 010 1.12z" class="cls-3"/>
        <path d="M152 .79a1.64 1.64 0 00-1.64 1.65 1.7 1.7 0 00.06.46 1.66 1.66 0 001.15 1.1 1.7 1.7 0 00.46.06 1.73 1.73 0 00.47-.06 1.66 1.66 0 001.12-1.11 1.73 1.73 0 00.06-.47A1.65 1.65 0 00152 .79zm.86 1.65a.86.86 0 01-1.71 0 .72.72 0 01.07-.33l.21-.21a.79.79 0 011.12 0l.23.23a.72.72 0 01.11.31z" class="cls-1"/>
        <path d="M152 0a2.44 2.44 0 00-2.18 3.51A2.39 2.39 0 00151 4.63a2.36 2.36 0 001.06.24 2.44 2.44 0 001.08-.24 2.48 2.48 0 001.12-1.12A2.45 2.45 0 00152 0zm.86 2.44a.86.86 0 01-1.71 0 .72.72 0 01.07-.33.85.85 0 011.56 0 .72.72 0 01.11.33z" class="cls-3"/>
      </g>
      <g id="Blue_Trees" data-name="Blue Trees">
        <path d="M130.29 19.31h43.25v43.25h-43.25z" class="cls-1"/>
        <path d="M173.54 63.36h-43.25a.79.79 0 01-.79-.79V19.31a.79.79 0 01.79-.79h43.25a.79.79 0 01.79.79v43.26a.79.79 0 01-.79.79zm-42.46-1.58h41.67V20.1h-41.67z" class="cls-3"/>
        <path d="M134.87 23.89h34.1v34.1h-34.1z" class="cls-7"/>
        <path d="M144.34 58.78a.79.79 0 01-.79-.79V50a.79.79 0 111.58 0v8a.79.79 0 01-.79.78z" class="cls-1"/>
        <path d="M144.34 50.85a5 5 0 115-5 5 5 0 01-5 5zm0-8.48a3.45 3.45 0 103.45 3.45 3.46 3.46 0 00-3.45-3.45zM157.71 58.78a.79.79 0 01-.79-.79V40.94a.79.79 0 111.58 0V58a.79.79 0 01-.79.78z" class="cls-1"/>
        <path d="M157.71 48.19a.75.75 0 01-.56-.23L154 44.8a.79.79 0 010-1.12.78.78 0 011.11 0l3.16 3.16a.79.79 0 010 1.12.74.74 0 01-.56.23zM157.71 41.73a7.31 7.31 0 117.3-7.31 7.32 7.32 0 01-7.3 7.31zm0-13a5.73 5.73 0 105.72 5.72 5.73 5.73 0 00-5.72-5.75zM157.71 52.19a.79.79 0 01-.56-1.35l2.42-2.42a.79.79 0 011.11 1.12L158.26 52a.78.78 0 01-.55.19z" class="cls-1"/>
      </g>
      <path d="M185 31.26v-3.51h2.23c.06.41.1 1.88.09 2.29a4.18 4.18 0 014.19-2.62c2.49 0 4.44 1.6 4.44 5.31v9h-2.3V33c0-2.1-.78-3.52-2.81-3.52-2.51 0-3.52 2-3.52 4.8v7.38H185zM201.23 35.16c0 2.84 1.38 4.85 3.64 4.85a3.08 3.08 0 003.21-2.15h2.31A5.44 5.44 0 01204.8 42c-4.18 0-5.89-3.56-5.89-7.15 0-4.14 2-7.45 6-7.45 4.29 0 5.7 3.61 5.7 6.58a10.77 10.77 0 010 1.16zm7.08-1.7c0-2.29-1.13-4.13-3.4-4.13s-3.37 1.7-3.6 4.13zM214.76 27.75c1.66 6.54 2.6 10.28 2.83 11.71.24-1.29 1.18-4.77 3.06-11.71h2.26c2.07 7.89 2.69 10.19 2.91 11.44.33-1.49.86-3.58 2.93-11.44h2.33l-4.09 13.94h-2.49c-1.29-5.08-2.57-9.79-2.85-11.3-.24 1.53-1.43 5.77-2.93 11.3h-2.56l-3.86-13.94zM234.87 35.16c0 2.84 1.38 4.85 3.64 4.85a3.08 3.08 0 003.21-2.15H244a5.44 5.44 0 01-5.56 4.14c-4.18 0-5.89-3.56-5.89-7.15 0-4.14 2-7.45 6-7.45 4.28 0 5.69 3.61 5.69 6.58a10.77 10.77 0 010 1.16zm7.08-1.7c0-2.29-1.13-4.13-3.4-4.13s-3.36 1.7-3.6 4.13zM248.54 37.71a3 3 0 003.26 2.42c1.95 0 2.72-.89 2.72-2.15s-.62-1.91-3.15-2.56c-3.8-1-4.59-2.19-4.59-4.08s1.38-3.92 4.8-3.92 4.83 2.08 5 4h-2.22a2.63 2.63 0 00-2.88-2.16c-1.87 0-2.42.94-2.42 1.85s.55 1.56 3 2.17c4 1 4.84 2.42 4.84 4.49 0 2.44-1.85 4.22-5.16 4.22s-5.13-1.82-5.47-4.31zM258 27.75h2.3v-4.11h2.3v4.11h2.93v2h-2.93v8.16c0 1.36.31 2 1.52 2a5.25 5.25 0 001.15-.11v1.81a5.89 5.89 0 01-2 .26c-2.07 0-3-1.13-3-3.44v-8.71H258zM274.73 31.26v-3.51h2.23A21.92 21.92 0 01277 30a4.18 4.18 0 014.19-2.62c2.49 0 4.44 1.6 4.44 5.31v9h-2.3V33c0-2.1-.78-3.52-2.81-3.52-2.51 0-3.52 2-3.52 4.8v7.38h-2.29zM290.93 35.16C291 38 292.31 40 294.57 40a3.08 3.08 0 003.21-2.15h2.31A5.44 5.44 0 01294.5 42c-4.18 0-5.89-3.56-5.89-7.15 0-4.14 2-7.45 6-7.45 4.29 0 5.7 3.61 5.7 6.58a10.77 10.77 0 010 1.16zm7.08-1.7c0-2.29-1.13-4.13-3.4-4.13s-3.36 1.7-3.6 4.13zM304.46 27.75c1.66 6.54 2.6 10.28 2.83 11.71.24-1.29 1.18-4.77 3.07-11.71h2.25c2.07 7.89 2.69 10.19 2.91 11.44.33-1.49.86-3.58 2.93-11.44h2.33l-4.09 13.94h-2.49c-1.29-5.08-2.57-9.79-2.85-11.3-.25 1.53-1.44 5.77-2.94 11.3h-2.56L302 27.75zM325.55 21.51v8.3a4.42 4.42 0 014.15-2.39c2.13 0 4.47 1.23 4.47 5.38v8.89h-2.28V33.2c0-2.38-1-3.69-2.89-3.69-2.39 0-3.45 1.66-3.45 4.56v7.62h-2.3V21.51zM349.52 34.7c0 4-2.2 7.32-6.26 7.32-3.81 0-6.11-3.09-6.11-7.28s2.25-7.32 6.26-7.32c3.69 0 6.11 2.9 6.11 7.28zm-10 0c0 3.06 1.46 5.29 3.85 5.29s3.79-2.11 3.79-5.28-1.35-5.3-3.85-5.3-3.8 2.13-3.8 5.31zM363.18 37.63v4.06H361a19.49 19.49 0 01-.09-2.09 3.93 3.93 0 01-4 2.42c-2.24 0-4.39-1.16-4.39-5.1v-9.17h2.28v8.66c0 1.83.55 3.52 2.75 3.52 2.45 0 3.39-1.42 3.39-4.91v-7.27h2.29zM368.05 37.71a3 3 0 003.26 2.42c1.95 0 2.72-.89 2.72-2.15s-.61-1.91-3.15-2.56c-3.8-1-4.59-2.19-4.59-4.08s1.38-3.92 4.8-3.92 4.83 2.08 5 4h-2.22a2.63 2.63 0 00-2.87-2.13c-1.86 0-2.42.94-2.42 1.85s.55 1.56 3 2.17c4 1 4.83 2.42 4.83 4.49 0 2.44-1.84 4.22-5.15 4.22s-5.13-1.82-5.47-4.31zM380.74 35.16c0 2.84 1.38 4.85 3.63 4.85a3.06 3.06 0 003.21-2.15h2.31A5.44 5.44 0 01384.3 42c-4.18 0-5.88-3.56-5.88-7.15 0-4.14 2-7.45 6-7.45 4.29 0 5.69 3.61 5.69 6.58v1.16zm7.08-1.7c0-2.29-1.13-4.13-3.4-4.13s-3.37 1.7-3.6 4.13z" class="cls-4"/>
    </g>
  </g>
</svg>
