<svg xmlns="http://www.w3.org/2000/svg" xmlns:xlink="http://www.w3.org/1999/xlink" viewBox="0 0 351.85 467.92"><defs><style>.no-fill{fill:none;}.clip-path{clip-path:url(#clip-path);}.bright-red{fill:#d94e31;}.light-yellow{fill:#ffeb3e;}.white{fill:#fff;}.vivid-red{fill:#fc0414;}</style><clipPath id="clip-path" transform="translate(-73.98 -66.87)"><circle class="no-fill" cx="247.06" cy="247.06" r="247.06"/></clipPath></defs><g id="Layer_2" data-name="Layer 2"><g id="Layer_3" data-name="Layer 3"><g class="clip-path"><path class="bright-red" d="M133.89,167s1.38-13.51,5.25-17.13S148.9,137,150.52,132.5s8.37-19.84,10.75-22.84,7.37-10.41,7.37-10.41,6.25-1.94,8.63-1,0,2.11,8.37,2.11,12.88-1.5,13.75-3,2.38-12.12,2.88-12.93,2.62-6.55,2.75-7.06-.88-1.88,3.25-1.51,5.87,1.52,6.62,1.51S223.26,80,223.26,80s5-3.62,7.13-4.18,6-2.69,9.33-1.81,8.3,1.87,10.67,2.5S265,73,265,73s6.12-1.75,6.5-2,6.5-2.19,7.62,2.53,1.75,8.59,2.88,10.91,1.37,9.3,5.37,7,9-6.74,9.13-7.87,5.37-5.37,6-4.75,1.87,4.92,3.37,7,11.65,5.51,14,7.86a15.62,15.62,0,0,1,4,7.62c.5,2.25,1.5,6,1.5,6l12.88,22.79s4.62,4.51,6.62,5.51,8.5,3.38,9.25,4.82,2.5,2.81,7.38,11.18,5.37,8.63,6.25,14.25,1,7.13,1,8.5-87.14-2.62-87.14-2.62l-53.15,7.67-29.17,11.83S176,210.77,171.14,212.53s-25.18,8.26-28.84,3.59-11-34.24-11-34.24Z" transform="translate(-73.98 -66.87)"/><path class="light-yellow" d="M156.81,271.12s5.69,8.53,7.84,16.35a30.13,30.13,0,0,0,7.49,12.82l6,7s7.45,3.28,9.23,5,14.77,8.5,14.77,8.5l-.75,6.5h-2.48L196.48,329l-3,9c-.09.25,1.16,25,2.83,28.66s5.67,14,14.17,21.17,17,20.69,45,16,47.66,2.85,53.83-7.91S331,360.79,331,356.46s-7.12-45.6-7.12-45.6l2-8.07,9.41-9.75,3-7.42,2.67-37.5v-56.5s-14-8.83-30.34-10-77.33,3.67-90.83,6.17-31.83,13.33-32.5,13.83S167.9,244,167.9,244l-13.76,12.79Z" transform="translate(-73.98 -66.87)"/><path class="white" d="M256.39,292.54c-1-.88-7.65-7.5-6.45-8.25S267,282.41,272,282.54s10.75-.39,15.5,0,6.38,0,6.38,0,.26,4.63,0,4.94-3,4.44-4,5.07a62.45,62.45,0,0,1-9.62,3.5c-1.63.25-8.5-.13-9.75,0S256.39,292.54,256.39,292.54Z" transform="translate(-73.98 -66.87)"/><path class="vivid-red" d="M75.14,441.76l30.75-48.32,33.06-32a111.66,111.66,0,0,1,6.32-13.66c3.19-5.44,10.23-12.27,10.23-12.27l11.06-7.08,21.19-4.57s8,2.72,11.52,2.85c0,0-.29,5.71-.71,8.51s4.92,7,6.08,6.78,21.17,4.26,22.5,4.26S228,349,228,349a86.81,86.81,0,0,0,4.52,10.28c3.14,6.22,9.48,25.55,9.48,25.55l25.83,4.33,35.5-3,8.17-25L315.14,342l-7.61-3.57V326.51a7.72,7.72,0,0,1,0-6.85c1.78-3.87,13.28-11.37,13.28-11.37s5.28,5,10.44,7.06,15.56,9.11,18.48,10,10,9.09,10,9.09l12.4,5.83,10.34,7,12,10.33,16.66,35.67,11,30.52s1.62-1.55-2.69,8-26.64,29.56-26.64,29.56L274.23,534.79s-121.73-12-127.66-15.5-60.93-32.42-60.93-35.71-10.5-45.67-10.5-45.67" transform="translate(-73.98 -66.87)"/><path d="M151.52,137c2.37.12,12-13.63,15.87-22.13s2.19-15,5.69-13.75,2.81,7.5.5,13.25-6.37,8.38-7.69,10.19a3,3,0,0,0,2.07,4.88c2.75.5,22.31,9.56,26.25,10.75s3.75-2.13,1.37-3.88-6.37-3-10-3.94-5.5-1.43-3.69-5.75-.5-9.81,2.57-10.25,3.25-4.06,3.87-7.25,4.38-4.93,4.13-1.31-2.32,15.56-.63,17.88,14.81,10.81,17.06,11.43,10.19-11.43,12.13-15.81,4.06-8.69-1.75-7.12-11.5,8.18-11.44,12.81-1.06,4.44-3.44,2.69-2.68-.13-6.68-3-2.44-6.44.93-5.07,8.19-4.62,8.38-8.87-1.5-5.25-3.31-6.44-2.25-4.56-.82-9.12.13-11.44,2.88-11,3.37,1.43,2.69,4.68,1.43,2.5,3.43,1.82,2.88-.19,4,3.81,5.5,5,8.82,2.87,6,1.19,3.93,2.07-6.43,5.37-5.18,7.56,6.43-.38,9.93-.88,5-.75,5,2.57,3.94,6.31,4.32,9.5-5.19,13.06-4.38,15.62,5.75-1.37,8-3.25,9.19-4.5,7-8-6.69-9.69-2.94-12.19,4.38-4.68,10.07-3.25,6.87,3.19,7.43,5.69,1.32,5.81,1.44,7.19,4.25.06,5.25-4.81.38-9.13,2.69-8.57,1.62,2.57,2.94,3.44,8-3.81,9.18-8.44,2.44-6.12,3.75-5.87,2.07,3.37,1.88,6.19,3.37,3.62,4.94-.57.62-14.41-.38-17.2,3-4.42,4.25.52,3.63,17.68,0,20.68-8.06,2.75-7.62,4.25,10.81,1.25,14.25,1.5,3.56-5.18,3.31-8.06.75-9.94-.63-16.75S307.21,76.29,303,75.41,291.89,80,290.14,83.54s-3.5,2.69-3.93.44-.57-10.69-5.25-14.82-11.13-2.06-15.5,1.32-9.38,4.31-15.72,3.5-12.16-3.13-17.56-.19-7.47,4.69-11.85,3.31-7.12-4.62-11.81-3.69-8.69,6.82-8.94,12,.44,8.63-.69,10.75-7.62.82-10.18.63-10.63-2.13-18.94.12S154,114.85,151.52,125.66C151.52,125.66,149.14,136.91,151.52,137Zm128.87-33.71s4.25-5.35,5.19-3.79-1.31,6.94-3.31,7.69S279.21,105.31,280.39,103.33ZM268.07,83.24c.31-2.5,1.34-9.23,3.32-9.64,2.44-.5,5.57,4.75,5.75,12.56S274.33,98,272.27,98.29,268.13,91.5,268,85A9.82,9.82,0,0,1,268.07,83.24ZM252.24,100.6c1.59-3.81,1.8-5.32,1.22-6.87,0,0-2.75-6.32,0-6.88s2,3.88,4.68,8.5,4.13,4.81,4,6.69-1.68.94-4,.75S250.64,104.41,252.24,100.6ZM244.08,94a34.39,34.39,0,0,1,.5-4.5s-1.25-8.31.63-9.25,2.8.81,2.87,3.56-.62,16-1.25,18.13-5,1.75-7.11-1.13-.76-2.37,1.17-2.31S244,96.66,244.08,94ZM209.52,79.1c3.87-.56,12.31,6.44,14,7.38,0,0,2.81,3.62,4.75,0s3.62-8.44,7.5-9,5.37,3.31,2.31,3.5-4.25,3.43-5.31,5.75S230,92.48,226,91.29,212.89,84.91,209.52,83,205.64,79.66,209.52,79.1Zm81.91,144.61a99.37,99.37,0,0,1,10.68-2.27c4-.58,8.27-1.23,8.95-1.4,1.33-.33,7.75-.08,8.75-3s-9.83-6.7-16.75-5.68-18.58,7.48-17.25,11.11C286.54,224.5,289.19,224.3,291.43,223.71Zm134.3,201c-1.25-3.42-8.71-28.3-22.84-55.55s-19.41-30.79-34-33.12-29.41-.42-37.16.33-18.84,5.25-19.25,1.42S309,324.12,306.64,327s-5.66,14.83-45.33,15.58-47.33-1.25-53.17-3.54-7.37-3.79-7.37-3.79-2.79-2.5-2.63,2.75.75,8.83,4.5,8.92,14.25-2,17,2.41,31.09,2.67,49,3,39.17-6.58,41.84-7.58.25,3.25-1.92,15.58-8.58,19.75-16.25,19.84-13.83-9.5-17.33-11.92-3.34-.67-2.09,4.08,4.75,8.17-1,9.75-21.83,3.67-25.41-2.41-14.75-24-17.75-22.59,2.66,20.76,2.66,26.67-10,7.67-13.08,1.17-10.17-25.5-13.17-25.67-3.33,10.58-1.25,21.33,1.92,13.17-2.16,15.09-21.67,2.5-17.92-5.92,8.75-18.17,9.25-21.75-6.46-2.92-9.77,1.33-4.81,7.5-4.9,19.09-3.75,24.66-4.66,33.75-1.75,31.08-4.59,41.91S162,489.29,162,489.29l15.9,4.26-14,7.49s68.25,21.5,94.25,20c16.53-.95,22.52-10,24.7-16.55l37.47-8.87s-.11-2.86-.29-7.57l11.65-2.35c.09,4.56.14,7.26.14,7.26l17-9.17s-.05-.54-.15-1.51l27.23-5.49.76-8,7.49-5s-1.5-3.17-2.16-11.33-13.17-68.84-14.5-79.17-6.59-36.5-1.84-33.58,24.67,20.08,26.17,22.66,1.08,3-.5,4.25-1.75,3.42-1.08,5.34,11.83,25.83,12.33,24.91-4.25-16.33-4.75-19.16,1.75-3.09,3.58.66,16.34,45.09,16.34,45.09-24.42,13.08-24.59,12.66-4.66-22.66-7.16-24.83-3.09.25-2.25,2.83,7.83,31.75,5.83,36.84-6,6.33-4,7.25,7.25.16,8.42-5.34,6.25-12.66,14.16-15.58S427,428.12,425.73,424.71ZM205.32,455.49c-6.41.48-12.38.91-16.87,1.23.07-5.34.11-10.2.06-13.77,4.18-.26,10.12-.66,16.27-1.19C205,446.1,205.15,450.76,205.32,455.49Zm-17.4-40.55,14.56-.43c.28,1.63.54,3.34.83,5.11.16,1,.32,2.46.47,4.39-6.27.36-12,.8-16.24,1.15C187.28,420.94,187.25,417.55,187.92,414.94Zm-.3,76.59c.12-3.94.29-10,.46-16.74,4.54.11,10.59.09,17.86-.3.2,6.55.36,12.5.48,17C199.7,491.51,192.51,491.52,187.62,491.53ZM219.14,419a10.48,10.48,0,0,1,1.25-4.94l9.92-.25a10.51,10.51,0,0,1,2,6.19c0,.81.09,2,.19,3.39-4-.14-8.54-.12-13.19,0C219.18,421.47,219.12,420,219.14,419Zm1.93,21c1.53-.22,2.94-.45,4.2-.69,2.32-.44,5.24-.91,8.45-1.38.42,4.66.91,9.86,1.44,15.23-3.58.31-7.78.66-12.24,1C222.26,449.24,221.62,444.43,221.07,440Zm7,50c-.71-4.72-1.6-10.73-2.54-17.26,3.67-.42,7.53-.87,11.42-1.35.6,5.95,1.18,11.63,1.68,16.53C234.91,488.73,231.33,489.44,228.08,490Zm28.63-77.26c2.13-.17,4.09-.36,5.8-.54a101.27,101.27,0,0,1,1.81,12.89c-2.11.13-4.74.21-7.81.17C256.63,420.63,256.46,416.11,256.71,412.76Zm-.53,22.31,8.85-1c.37,5.23.68,10.25,1,14-2.67.66-6,1.42-9.57,2.14C256.3,444.34,256.18,439,256.18,435.07Zm1.71,48.51c-.22-4.55-.46-9.62-.68-14.8,4.52-.61,8.52-1.16,11.59-1.59.57,4.16,1.17,8.75,1.75,13.29C267,481.38,262.59,482.46,257.89,483.58Zm59.26-80c3.53-.55,7.76-1.24,12.19-2,.14,3.05.27,6.38.4,9.9l-12.36,1.56C317.25,408.78,317.17,405.48,317.15,403.59Zm.71,24.66,12.37-1.69c.12,3.8.23,7.68.34,11.56l-12.3,1.9C318.13,436,318,432,317.86,428.25Zm1.63,45.5c-.17-4.57-.35-9.57-.54-14.76l12.11-1.46c.12,5,.23,9.79.32,14.11Zm14.9-128.09c-.75,7-5.5,31.75-13.12,33.5s-9.13-3.87-7.25-11.62a65.38,65.38,0,0,0,2-11.5s-.5-11.13,2.75-13S335.14,338.66,334.39,345.66ZM337.64,366a64.75,64.75,0,0,0,1.25-8.5s.38-13.38,5.13-15.13,11.25,2.75,11.75,8.13,1.87,11.87,2.5,16.75-4.63,8.62-12.25,9.12S336.64,370.66,337.64,366Zm3.42,33.4c5.88-1.16,11.37-2.38,15.34-3.55.36,3.39.75,7.51,1.17,12.09l-15.66,2C341.58,406.08,341.29,402.52,341.06,399.44Zm2.15,25.34,15.63-2.13c.3,3.6.6,7.29.9,11l-15.5,2.4C343.89,432.24,343.55,428.47,343.21,424.78Zm4.14,44c-.38-3.89-.8-8.34-1.26-13.11l15.25-1.84c.35,4.57.67,8.75.94,12.3Zm-90-343.66c-1.62,2.57,5.19,3.88,5.19,3.88s6.5,2.5,7.5,0S259,122.6,257.39,125.16ZM229.64,114c-2.75,2.31-11.12,17.06-11.12,17.06a78,78,0,0,1-7,9c-2.94,2.94-1.06,3.56,1.62,4.5s11.38,0,13.94-2.69,3.13-5,4.44-8.56.37-11.94,1.37-17S232.39,111.73,229.64,114ZM150.64,435s-.75,1.91-2,5.58-3.25,8.33-1.16,8.67,9.75-20.67,8.83-24.34S150.64,435,150.64,435ZM269.06,305.12c-4.92.75-5.75,1.84-2.83,4.09s13.58,1,13.58,1c4.67-.75,7.25-2.92,8.75-5.09S274,304.37,269.06,305.12ZM133.73,391.37c-1.17,3.75,5.58,1.25,5.58,1.25a4,4,0,0,0,2.38-2.66C142,388.12,134.89,387.62,133.73,391.37ZM142.39,455c-3.75-.17-9.25,16.66-9.25,17.33l4.34,4s4.91-3.58,6-9.42S146.14,455.12,142.39,455Zm-5.25-46.25c3.67,1.5,11.25-1,12.92-6.09s-1.14-5.18-3.49-2.05a11.74,11.74,0,0,1-2,2.19,6.81,6.81,0,0,1-7.44.52,6,6,0,0,0-3-.66C131.23,402.71,133.48,407.21,137.14,408.71ZM300.52,285.78c.94-1.38,4.62-.37,6.31-1.8s.19-7.19-2.94-7.32-4.25.94-14.18,3.19-41.13,2.19-43.5,2.31-5.5.88-6.32,4.32,1.57,4.81,6.13,4.93,9.12,3.5,9.12,3.5,8.57,4.94,25.32,2.88S299.58,287.16,300.52,285.78ZM291.06,289c-1.54,1.34-16.17,6.86-29.85,2.24,0,0-4.69-1.07-4.82-3.19s2.38-2.88,7.5-1.81,22.07-.44,25.5-1.19S292.43,287.8,291.06,289ZM139.23,368c2-.59,17.25-1.67,20.66-2.75s4.59-3.5-.83-4.67-8-3.25-11-1.92c-1.38.62-3,1.59-4.16,2.24h0a7.12,7.12,0,0,1-3.19,1.18c-.89,0-2.72-1.17-5.42-1.78a6.26,6.26,0,0,0-2.95.07c-5.11,1.29-13.88,5.68-25,20.46C92,401.12,74,431.79,74,431.79l9.16,6.5s24.67-36.5,32.17-48.17,12.33-13.83,17.58-15.58S137.23,368.54,139.23,368Zm2-119.08c7.12,11,15.54,22.24,15.54,22.24a30.65,30.65,0,0,1,2.26,2.42c1.77-.12,3.21-1,3-3.75-.63-6.63-.88-13.75,4.75-15.38a22.29,22.29,0,0,0,11-7c2.25-2.5,11-7.62,20.62-7.12s15.59,8,17.13,14.87c1.59,7.08,4,10.88,8,13.25s30.2,5.38,38.57,1,10.38-16.87,10.88-21.25.12-8.43,2.5-8.37,2.44,5.94,2.62,7.81,2.88,12.88,6.94,17.06,14.13,2.19,23.63-.18,12.68-6.19,14.68-11.94,2.57-12.31,3.13-15.13,2.62-3.68,4.19-4.56,6.93-3.56,7.5,2.19.06,26-.75,39-2.5,19.12-16.19,28.06S293.14,319.91,252,319.79s-60.88-6.5-69.5-14-9.56-10.31-10.81-17.13-.63-18-.63-20.81.5-9.69-1.12-9.94-1.19,3.11-1.19,5.53.37,11.72-.5,13.6c-.67,1.43-3.1,2.35-4.23,6a6.26,6.26,0,0,1,.1.74c.5,6.33,4.5,25.33,21.34,32.5,15.13,6.44,16.79,9.78,14.43,10-.81.4-1.81,1.24-.13,2.62a11.57,11.57,0,0,0,1.36.18c2.59.17,29.17,1.17,72-2.5s52.17-17.16,61.34-26.16,7.83-23,7.83-26.67.43-39.63.07-42.5,3-2.54,3.1-1.13a7.89,7.89,0,0,0,1.33,4.21c.92,1.29,4.42,0,10-6.46s8-25,9-29.87a91.15,91.15,0,0,1,5.33-15.33c1.17-2.17,3.34-6.92.92-14.34S362,145.12,355.23,139.29s-14-8.75-14.84-11.58-8.5-11.75-11.25-16.59-5.62-15.71-9.25-17.33-2.37,2.12-1.62,7.75,3,13.62,5.25,18,9.62,9.75,7.5,12.62-13.25,7.75-20.63,11.63-18.25,7.75-17.87,1.87,1.12-8.75-3-8.5-8.13,1.75-7.25,5.5,2,11-.63,12.38-2-2.25-2.12-6.25-2.63-12.5-5-12.5-10.38,4.19-14.56.31-5.57-5.75-7.75-5-9.44,9.19-14.94,11.13-19.56,9.12-29.94,11.62-9,2.13-15.81,4.81-8.56,4.44-9.88,3.69.07-1.87,2.25-4.25,11.13-8.06,9.19-9.62-21.19-8.63-24.19-9.75-4.25.37-4.75,2.93-3.31,4.57-3.75,1.69-2.18-5.75-4.81-4.25S146.71,142,143,144.91s-10.63,8.5-16.38,28.5-3.5,39.5-1.37,44.5S134.14,237.85,141.27,248.88ZM348.89,141.21c2.42,3.75,5.84,6.41,8.42,10.41s6.92,10.59,8.08,15.75-1.75,6.42-2.16,3.75-2.84-7.66-4.5-8.66S356.64,159,356,155.9s-4.75-7-4.75-7-7.09-4.16-7.09-6.5S346.48,137.46,348.89,141.21Zm-80.58,98.33c-.17,2.83-2.08,22.92-13,25.5s-26.42,1.92-31.08-4.5-6.25-15.42-6.67-19.75,4.33-4.92,4.33-4.92,40.42.09,42.34,0S268.48,236.71,268.31,239.54ZM314.89,257c-7.66,4.33-18.83,5.33-23.83,2.5s-7.17-13.09-9.08-19,4.66-7,4.66-7,29.25-3.67,31.75-4.09a3.28,3.28,0,0,1,4,3.25C322.48,234.54,322.56,252.62,314.89,257Zm-121.25-49a11.44,11.44,0,0,1,9.88-7.87c4.5-.38,61.25-4.63,73.5-7.38s18.5-3.5,25-1.37,14.37,4.87,19.37,2.87,13.75-2.12,15.63,8.5-2.81,20.07-5.5,22.88-4.19,2.37-6,1-3-2.19-5.63-1.94-55,4.23-64.25,4.71c-8.85.46-31.7,1.4-46.35,3.67a24.51,24.51,0,0,0-3.06.66c-3.79,1.05-15.54,3.74-15.34-3.6C191.14,221.29,192.27,212.29,193.64,207.91ZM149,163.21c1.25-7.59,8.5-13.34,12.66-5.59s4.92,13.09,7.59,16.42,16.5,17.33,13.91,21.5-10.25-5.33-15-8.33a89.47,89.47,0,0,1-7.83-5.5S147.73,170.79,149,163.21Zm-10.09-3.84s2-10.25,5.25-9.41,1.09,6.5,1,11.41-.5,4.5-1,8.84.17,8.58-.5,11.08-4.25-3.5-4.75-8.42A112.57,112.57,0,0,1,138.89,159.37ZM170,356.66c-1.88,4.38,1.12,4.13,7.87,2.5S198.64,355,200.64,353s-21-3-21-3C175.78,349.83,171.89,352.29,170,356.66ZM223.23,222h10.83s23.42.42,25.5.42,5.92.5,5.92-1.84-12.5-11.91-28.67-8.09S220.06,222,223.23,222Zm103.91,93.67c-2.66,2.5-1.41,3.5,7.29,6.5s16.21,9.08,17.71,8.08-2.41-4.92-2.41-4.92C338.56,318,329.81,313.21,327.14,315.71ZM189.3,324.13a39,39,0,0,0-18,.83c-12.5,3.83-22.83,15.33-26.33,23.5q-.45,1.05-.87,2a2.08,2.08,0,0,0-.2,1,4.5,4.5,0,0,0,.61,2.37c.85,1.24,2.19,1,3.28.51.14-.26.28-.54.43-.84,2.41-5,4.66-13.17,6.58-11.17s3,.08,4-3.08-.25-6.09,7.58-7.59c7-1.33,16.78-3.39,22.26-3.89h0s3.24-.9,3.24-2S189.86,324.26,189.3,324.13Zm-32.49,77a80.54,80.54,0,0,1-1.08,8.09c-.84,4.5.75,9.83,2.54,8.25s3.46-32,1.46-33.92S156.81,401.12,156.81,401.12ZM299.16,235.25A10.75,10.75,0,1,0,309.91,246,10.76,10.76,0,0,0,299.16,235.25Zm-1,9.76a2.88,2.88,0,1,1,2.88-2.88A2.88,2.88,0,0,1,298.13,245ZM251,239.12a10.75,10.75,0,1,0,10.75,10.75A10.75,10.75,0,0,0,251,239.12Zm-1,9.76a2.88,2.88,0,1,1,2.88-2.88A2.88,2.88,0,0,1,249.94,248.88Z" transform="translate(-73.98 -66.87)"/><path class="white" d="M298.48,382.12s-23.34,8.2-40.34,6.44c0,0,15.34,15.91,15,24.49s-3,13.07-1.16,18.07a13.85,13.85,0,0,0,6.33,7.17s18.17-5.83,14-16.75-6.83-18.62-6.83-18.62,8.66-3.46,11.66-8.8S298.48,382.12,298.48,382.12Z" transform="translate(-73.98 -66.87)"/></g></g></g></svg>
