<svg xmlns="http://www.w3.org/2000/svg" viewBox="0 0 338.77 243.34"><defs><style>.cls-1{fill:#8e5632;}.cls-2{fill:#d42422;}.cls-3{fill:#fad5c4;}.cls-4{fill:#024ee5;}.cls-5{fill:none;stroke:#000;stroke-miterlimit:10;}.cls-6{fill:#58595d;}.cls-7{fill:#004ee9;}.cls-8{fill:#e81a1f;}.cls-9{fill:#5b007e;}.cls-10{fill:#04abdb;}.cls-11{fill:#ffe609;}.cls-12{fill:#beb0f6;}.cls-13{fill:#ff5504;}.cls-14{fill:#3d04c0;}.cls-15{fill:#b91469;}.cls-16{fill:#ffa708;}.cls-17{fill:#ec1a18;}.cls-18{fill:#06885d;}.cls-19{fill:#59585a;}.cls-20{fill:#ea1521;}.cls-21{fill:#fcd9b9;}.cls-22{fill:#828386;}.cls-23{fill:#eaffff;}.cls-24{fill:#007c52;}</style></defs><g id="Layer_2" data-name="Layer 2"><g id="Layer_1-2" data-name="Layer 1"><g id="Jess"><path class="cls-1" d="M21.31,98S18,111.88,23,120.28s23.52,11,19,5.52-11-6.72-11.76-15.6a59.24,59.24,0,0,1,1.25-10.8C32.59,94.6,27.31,86.68,21.31,98Z"/><path class="cls-1" d="M153.79,87.64s-1.68,15.12,16.32,15.84c0,0,4.2.72,3.24,3.6s-2.4,3.12-6.72,3.6-14.28-1-19.44-8.76a24.07,24.07,0,0,1-3-13c.6-7,5-10.56,7.92-11.28s8-.12,8.16,4.68S157.15,89,153.79,87.64Z"/><path class="cls-2" d="M74.15,133c2.3,1.56,4.24,4.29,6.2,6.28,0,0,5.4-5.28,7.08-6s4.44-.24,3,6-7.8,13.56-17.28,7.56c-3.65-2.31-7.4-6.65-7.35-11.23C65.86,131.17,71.22,131,74.15,133Z"/><path class="cls-3" d="M67.15,170.8s6.24,11.16,4.2,21.72-7.92,19.8-.72,17,13.92-9,12.84-21.12-3.6-15.6-3.6-15.6,7.8,1.08,12.36-1.2c0,0-6.84,22.32,2,31.56,0,0,2.52-5.16,8.16-4.56,0,0-3.84-10.32-2-17.28s2.76-7.68,2.76-7.68,2.76,0,3.48-3.72a25.07,25.07,0,0,0,.6-5.64s9.36-7.2,13-11.4,8.76-12,8.76-19.56-4.56-5.52-6.36-2.28-11.75,19.9-22.8,26.16c-10,5.64-27.84,8.76-42.48-.84,0,0-5.64-2.88-3.12,3.72S67.15,170.8,67.15,170.8Z"/><path class="cls-4" d="M150.19,236.2s-2.52-3.36,1.44-4.08c0,0-1.8-5.16-10.08-6s-22-8.52-26.76-12.24S103.87,205,102.91,202.6s-4.2-2.88-5,0-1.8,7,2.52,12-28.08,3-30.24.72c0,0-8.28-5.28-11.28-10.56,0,0-1.56-1.44-7,2s-37.8,15.12-46.8,12.48c0,0-1.68.12,2.76,3.48s8,6.48,8,6.48,24.48-3.6,35.88-13.44c0,0,2.4-2.4,3.24.12s9.84,13.2,31.32,12.84,23.76-5.28,23.76-5.28a46.9,46.9,0,0,0,20.28,11C142.87,237.64,150.19,236.2,150.19,236.2Z"/><path class="cls-5" d="M33.81,157.9a15.44,15.44,0,0,0-7.1-7,17.37,17.37,0,0,0-9.87-1.51,10.35,10.35,0,0,0-6.39,3c-4,4.55,4.13,6.83,7.33,7.45a34.85,34.85,0,0,0,9.28.6C29.52,160.27,32.1,159.67,33.81,157.9Z"/><path class="cls-1" d="M41.17,152.83c-4-5.74-9.26-10.76-15.81-13.14S10.63,138,5.25,142.64a15.57,15.57,0,0,0-5.1,13.71c.77,5.1,4.81,8.57,9.13,11,8.9,4.9,20.28,4.56,29.33.21a31.19,31.19,0,0,0,5.22-3.17C56,155.18,61.37,139,60.51,123.77S53.37,94.18,45.89,80.92c-3.42-6.07-7.13-12-9.83-18.43C33.75,57,32.59,49.74,37.15,45.94c2.25-1.87,5.33-2.33,8.25-2.61,10.52-1,22.55.15,29.26,8.31-2.64,1.86-1.58,6.65,1.45,7.78s6.62-1,7.81-4,.38-6.52-1.33-9.27c-1.39-2.24-3.38-4.21-4-6.77a11.62,11.62,0,0,1,.85-6.58A37,37,0,0,1,94.17,14.57c8.33-5.31,20.23-6.66,27.55,0,3.12,2.82,5,6.72,6.56,10.64A76.79,76.79,0,0,1,132.91,62a47,47,0,0,0-26.48-29.77c-4-1.68-8.56-2.78-12.6-1.22S87,37.71,89.22,41.42c1,1.72,3.59,2.78,5.07,1.43.88-.81,1.2-2.27,2.34-2.63a2.89,2.89,0,0,1,1.34,0c8.73,1.51,16.07,7.89,20.53,15.55s6.4,16.52,7.67,25.29a17.35,17.35,0,0,1,.19,5,22.31,22.31,0,0,1-1.92,5.3,43.74,43.74,0,0,0-3.55,14.31c-.57,7.66,1,15.71,5.72,21.8s12.75,9.82,20.25,8.14c-7.89,8-6.35,23.17,3,29.44-6.15,6-5.88,17.25.56,22.93,5.62,5,15.55,4.58,21.26-.11.83-.69.93-.18.58-1.9-5.18.39-10.47-.84-13.66-4.94s-2.1-11.62,2.4-14.21c4.14-2.38,10.82-1.26,12.56-5.71,1.66-4.23-4-8.07-8.51-7.33-3.9.63-8.46,2.93-11.32.22-2.28-2.16-1.51-5.94-.25-8.81A41.83,41.83,0,0,1,161.66,133c2.31-2.41,5.13-5.74,3.43-8.6s-6.29-1.84-9.61-.78A35.22,35.22,0,0,1,144,125.27c-4.13-.09-9.12-1.77-9.76-5.85a10.6,10.6,0,0,1,.5-4.2,267,267,0,0,0,7.7-46c1.13-14.22,1.08-28.75-2.81-42.47-2.43-8.55-6.66-17-14-22-5.5-3.71-12.34-5.1-19-4.72C88.34,1.13,72,16.86,70.19,35.14c-7.83-2-15.83-3.93-23.88-3.34S30,36,25.82,42.92c-3.93,6.53-3.58,14.9-1.1,22.1s6.84,13.58,10.8,20.09c6.3,10.37,11.72,21.53,13.57,33.52s-.23,25-7.68,34.55Z"/><path class="cls-6" d="M119.83,83.06c-5-7.37-17.52-2.38-23,0s-3.6,1.82-9.87-.94-27.81,1-27.81,1c-.36-2.64-1.8-5.28-6.36-4.92s-2.76,6-2.76,6L50.71,88s-.12,15.36.24,18.11,1.92,3.49,1.44,5.42.6,4.91,4.32,4.07,15-.36,18,.36,2.88,1.32,6.72-1,6.12-.72,6.12-.72a8.47,8.47,0,0,0,5.76,4.92c13.2,2,13.56-.12,14.76-3.48s-3.72-6.24-5.88-5.28S93,112,91.24,110s.53-14.17.53-14.17.46,1.33,9.7-2.75,10.2-1.56,10.2-1.56-1.44,20.52-.48,25.2,6.48,4.08,8,1.68.48-6.72,1.93-15.26-1.33-12.22-1.33-12.22C124.39,86.44,119.83,83.06,119.83,83.06ZM82.24,96.21C80.89,98.06,81.07,107,81.07,107a39.48,39.48,0,0,0-4.79-1.8c-2.89-.9-16.18,0-16.18,0l.54-11.88c1.08.81,19.8-.9,22.14-1.09S83.59,94.36,82.24,96.21Z"/><path class="cls-1" d="M65.68,96.25a6.32,6.32,0,0,0-1.8,5.49c.54,3.42,4.5,5.13,7.83,4.05s5.67-5,4.05-7.83S68.47,93.55,65.68,96.25Z"/><path class="cls-1" d="M92.64,98.47s0,.07,0,.1a6.27,6.27,0,0,0-.36,1.76q-.27,2.7-.39,5.4c-.06,1.51-.35,3.88,1,4.75a10.33,10.33,0,0,0,5.5,1,2.26,2.26,0,0,0,1.8-.69c.5-.7.24-1.88,1-2.33a1.74,1.74,0,0,1,.79-.19c1.36-.1,2.88-.16,3.85-1.12a3.29,3.29,0,0,0,.87-2.62,6.36,6.36,0,0,0-1-2.65,12,12,0,0,0-6.18-5.15,7.26,7.26,0,0,0-4.14-.4A4,4,0,0,0,92.64,98.47Z"/><path class="cls-1" d="M171.12,124.68a39.25,39.25,0,0,0-.13,5.21,21.9,21.9,0,0,1-1.86,8.43c-.93,2.08-2.18,4-2.93,6.18-1,2.8-.52,10,4.27,8.23a7.86,7.86,0,0,0,3.41-3.23c4.2-6.12,7.72-13.13,7.62-20.56a12.71,12.71,0,0,0-.77-4.54,8.86,8.86,0,0,0-2.1-3.12,4.78,4.78,0,0,0-2.77-1.43c-2.11-.2-3.91,1.7-4.5,3.73A10.26,10.26,0,0,0,171.12,124.68Z"/></g><g id="Andy"><path class="cls-7" d="M230.65,108.4s-1.26,7.4,0,9,5.94.53,6.84.89,9.18-4.94,9.18-4.94-4.5-15.45-4.5-16.71-4.32.41-4.68,1.67S230.65,108.4,230.65,108.4Z"/><path class="cls-8" d="M228.31,118.48s-1.26,4.68,0,7,4.86.83,4.86.83,2.82,11.47,11.34.25c7.47-9.85,20.34-14.76,20.34-14.76a16.74,16.74,0,0,0,4.32-14.58S270,89,262,101c0,0,1.08-1.62-5,1.62s-7.38,7.56-10.08,8.82-1.8,3.42-4.86,3.42a12.18,12.18,0,0,0-7,2.7C233.89,118.48,230.47,116.14,228.31,118.48Z"/><path class="cls-9" d="M227.75,112.79s0-3.67,2.34-3.31,6.14,1.06,6.86-1.63,3-8.54,2.65-10.48,2.57-14,2.57-14a12.81,12.81,0,0,0-11.34,3.24c-5.22,4.86-2.92,5.41-3.08,8.37s.52,8.19,0,9.45-2.5,1.62-2.68,4.32S225.41,116.11,227.75,112.79Z"/><path class="cls-10" d="M238.38,85.9s-1.61-8.64.91-9,2.88-.72,4.14-2,0-6.66,5.14-8.28A28.51,28.51,0,0,1,257.83,65c1.26,0,6.84-3.78,7.92-4.86s3.65,7.38,3.65,7.38l-2.21,3.6s-5.22-2-8.46.54-5.4,7.56-6.66,7.56-5.22.18-6.84,2S239.45,87.16,238.38,85.9Z"/><path class="cls-11" d="M239.45,87.16s-4.84,12,.92,10.21,6.3-6.43,10.08-7,4-3.13,7.38-4.27c1.32-.44,4.94.66,7-1.19,3.21-3,4.61-9.2,4.61-9.66,0-2.18-.85-4.64-5.84-4.87-4.2-.19-6.87,1.75-10.08,7.63,0,0-6.48,1.34-8.25,3.18S239.43,84.46,239.45,87.16Z"/><path class="cls-9" d="M266.65,58s-1.68,9,.54,13.14,2.34,4.68,5.22,4.5,5.4-3.63,9.36-5.42,4.68-3.91,6.12-3.39.54-2.35,3.06-2.71a15.42,15.42,0,0,0,5.76-1.8c2.16-1.08,7.92-2.34,7.74-4.32s-3.6-6.84-9-6.48-6.84-.36-8.1,1.08-3.78.54-5.22.9-2.52.9-3.6,1.26a16.53,16.53,0,0,1-3.6.36,8.92,8.92,0,0,1-2.7,1.62c-1.26.36-2.4-.72-2.82.36S266.65,58,266.65,58Z"/><path class="cls-12" d="M304.45,55.84s5.22.18,5,2.52-6.25.38-8.35,2.26-2.09,6.56-3.17,8.18a46.22,46.22,0,0,1-3.6,4.3l-2,4L289.51,80s-.36,3.32-2.16,5-4.86,4.92-.54,7.62c0,0-7.56.72-8.64.9s-5.4-1.08-4.14-4.5,2.52-7.92,2.52-9.9-3-4.44-1.51-5.55,8-3.92,8-3.92-.25-2.94,1.46-2.59S289,65.73,289,65.73,287,63.05,289,63.58s13.31-3.42,14.4-5.58Z"/><path class="cls-13" d="M242.17,96.65A44.51,44.51,0,0,0,244,106.2c1.39,3.8-.46,9.15,1.72,7.74s6.16-7.67,7.18-8.53,8.15-4.57,9.23-3.13,3.78-8.09,6.48-7.29S274,91,274,91s2.76-9.66,2.6-12-.14-4.41-.14-4.41l-7,.63s-2,2.88-4.19,3.24,0,6.18-1.62,5.36-5.58.94-5.58.94S255.79,87,253.63,89c-1.86,1.73-5.06,1-7,3.83A17.27,17.27,0,0,1,242.17,96.65Z"/><path class="cls-14" d="M244.51,126.58s10.08-1.62,13.86-.72,7.56,1.31,10.26.47a8.82,8.82,0,0,0,5.17-4.61c.41-1.26-.59-6.63,0-7.55s1.68-5,2.75-7.93,1.08-4.14,2-6.12,1.48-6.33-.36-6.66-4.54-3.38-4.54-3.38,0,3.39-5,4.91c0,0,1.46,13.68-4.56,17-6.59,3.63-9.13,3.9-13,7.08"/><path class="cls-15" d="M286.81,92.56s6.18,2.71,9.78.91,6-11.41,8.52-13.39,2.4-4.21,2.94-4.41,1.81-6.15,1.44-7.77.28-7.73-1.57-8.37-7.07-.13-8,2.88-2,7.37-4.86,9.15-2.69,5.52-2.69,5.52-3.92,3.45-4.48,5.59-3,2.26-3.23,4.51S284.49,92,286.81,92.56Z"/><path class="cls-9" d="M321.73,67.54s-2.16,15.84,0,16.92,7.2,0,8.64,0,5.22-.36,5.22-.36-3.78-6.91-5.94-7.78-1.08-2.66-2.88-5A15,15,0,0,0,321.73,67.54Z"/><path class="cls-7" d="M310.57,59.29s-2.7,3.75-2.7,6.81,1.18,10.49-3.42,12.78-1.44,6.66,1.62,7.38,5.76-.72,6.48.9,2.34,3.6,3.6,2.7,6.17-4.46,5.58-5.4,2-10.62,0-16.92c0,0-4.86-.9-5.76-2.7S312.29,57.85,310.57,59.29Z"/><path class="cls-14" d="M328.93,86.13s.48,17.41-.75,21.73-3.27,5.81-4.17,6-3.24.33-3.24.33-1.66,6.11,1.72,6.11,7-.54,8.42-2.7,2.34-1.26,4.68-2.16a5.43,5.43,0,0,0,3.06-2.63s-.18-21-1.08-22.71a5.31,5.31,0,0,0-2-2.2S330,84.21,328.93,86.13Z"/><path class="cls-11" d="M273.8,121.72c.35,1.27,4,3.78,8,1.08s3.54-6.51,4.74-10,3.84-6.67,2.76-14.26-.83-6.33-.83-6.33l-10.27,1.26s1.77,5.57-.2,8.09l-2,2.53a24,24,0,0,1-.86,6.37C274.27,113.1,272.23,116,273.8,121.72Z"/><path class="cls-16" d="M306.07,86.26s-3.24,9-4.14,8.73-1.62,3.69-1.44,5.13-.36,7.4-.9,7.93-1.42,11.69-2.51,12.23-9.52,4.75-12.48,2c-1.15-1.08,0-5.94,0-5.94s4.2-9.46,3.84-10.8,0-13.32,0-13.32,2.69,3.24,7.73.36,3.36-7.86,4.92-7.62,1.59-3.5,1.59-3.5Z"/><path class="cls-11" d="M321.73,84.46S321.16,91,320.36,95s-1.33,9.27-3.67,9.63-2.7,2.7-2.7,6.3-.54,6.3,0,6.3,6,.52,6.37-1.26,0-1.79,2.13-1.79,5.12-2.19,5.69-6.31.75-21.73.75-21.73V84.46S321.77,85.87,321.73,84.46Z"/><path class="cls-17" d="M298.73,112.79a41.28,41.28,0,0,0,5.72,3.35c3.06,1.44,9.75,2.73,9.54,1.08s.35-11.43,2.7-12.6,2.36-2.55,3-6.09,2.64-15.41,1.57-14.63-5.06,7.25-6.43,6-2.26-4.14-4.53-3.8a18.74,18.74,0,0,1-4.25.13S303.73,94,301.93,95s-1.46,7.33-1.46,7.33S299.46,108.11,298.73,112.79Z"/><path class="cls-18" d="M251.28,216.59c-4.41,5-9.1,10.15-15.26,12.72a6.93,6.93,0,0,0-1.69.87c-2.11,1.67.51,2.83,2,3.22a7.66,7.66,0,0,0,5.4-.61c3.49-1.86,5.16-6.24,8.77-7.84a1.34,1.34,0,0,1,1.13-.11,1.48,1.48,0,0,1,.57.64A32.05,32.05,0,0,0,256,230.2a7.34,7.34,0,0,0,1.87,1.64,2.45,2.45,0,0,0,2.39,0,2.53,2.53,0,0,0,.74-3,8.78,8.78,0,0,0-1.95-2.69,30.1,30.1,0,0,1-3-3.87A8,8,0,0,1,255,220c-.3-1.24-.08-2.58-.58-3.75a1.58,1.58,0,0,0-.6-.77c-.83-.5-1.84.3-2.48,1Z"/><path class="cls-19" d="M265.57,230.62s15.39,11.25,16.92,11.79,3.15-.54,4.59.63,4.41-1.26,6.48-3.15,12.15-9.54,12.6-10.35,1.8-5.94-4.14-3.06-14.4,11.61-15.21,11.61-12.87-6.93-15.48-9.36c0,0-1.26-.72-4.86-.18S265.57,230.62,265.57,230.62Z"/><path class="cls-18" d="M314.86,228h0a2,2,0,0,0,.67-.68,49.65,49.65,0,0,1,4.74-5.79,1,1,0,0,1,.74-.42,1,1,0,0,1,.53.26l7.57,5.84c2.22,1.71,4.79,3.51,7.55,3a2.43,2.43,0,0,0,2-1.46,2.1,2.1,0,0,0-.64-2,6.67,6.67,0,0,0-1.82-1.17,42,42,0,0,1-15.38-13.51,2.28,2.28,0,0,0-.8-.83c-.79-.38-1.73.3-2,1.12a10.05,10.05,0,0,0-.27,2.58c-.26,3-2.67,5.39-4.95,7.4a8.32,8.32,0,0,0-1.68,1.83c-.79,1.32-.57,3.13,1,3.67a5.59,5.59,0,0,0,1.91.21A1.84,1.84,0,0,0,314.86,228Z"/><path class="cls-7" d="M322.49,127.6s-1.84-5,1.58-5.88,12.6-2.88,13.86,0,0,18.18,0,18.18-7.27,5.58-8.05,4.86-2.15-10.74-2.69-11.64S328.22,125.26,322.49,127.6Z"/><path class="cls-20" d="M273.65,171.77a7.35,7.35,0,0,1,.56.78,23.33,23.33,0,0,0,3.49,4.19,2.75,2.75,0,0,0,1.7.94,2.67,2.67,0,0,0,1.13-.29c4-1.76,7-5.73,11.32-6.27a3,3,0,0,1,2.36.5,3.26,3.26,0,0,1,.59,3.18,13.21,13.21,0,0,1-6.69,8.38,20.3,20.3,0,0,1-10.69,2.17,10,10,0,0,1-4.88-1.23c-2.4-1.51-5.31-6-4.27-8.86a8.33,8.33,0,0,1,2-2.89c.72-.75,1.74-1.51,2.71-1.13A1.84,1.84,0,0,1,273.65,171.77Z"/><path class="cls-21" d="M236.41,148.27s-2.16,1.44-1.8,5.22,3.6,15.48,6.48,21.51,13.68,17.55,18.45,21.24,7.65,4.68,7.65,4.68.63,9.36,1.53,12.42-1,10.44,0,10.71,3.51,1.71,3.78-1,1.53-10.08,1-10.62-1.17-.72-1.35-3.06-.09-8-.09-8a78.34,78.34,0,0,0,20.07-.45s.36,15.21.54,17a4.39,4.39,0,0,0,3.78,4c2.16.18,2.34-1.89,1.71-4.32s-2.79-5-1.62-10.35,3.15-7.74,6.39-10.8,13-11.88,15.21-13.95,10.71-10.86,9.63-22.4c0,0-5.09.17-5,.89a20.68,20.68,0,0,1-4.34,12.69c-4.41,5.67-5.13,5.76-5.13,5.76s-1-.72-3.24,1.62a10.3,10.3,0,0,0-2.7,4.35,81.3,81.3,0,0,1-7,5.73c-2.7,1.8-11.07,4.86-14.76,4.41s1.89-1.62-2.88-1.35-13.05.36-14,.09-4.77-3.24-6.48-4.41-2.16-1.26-2.25-2.16-3.42-1.8-4.86-3.06-4.59-3.6-4.86-5.31a24.14,24.14,0,0,0-2.7-6.57c-1-1.62-2-1.8-2.31-2.34s-1.65-1.26-1.65-2.7-.09-11-.36-12.87a61.08,61.08,0,0,0-2.25-7.24Z"/><path class="cls-7" d="M242,147.28s-6.84.72-8.64,0-2-16.56,0-18.9.72,4.5,6.12,2.16,3.78-5,5-4S245.41,145.84,242,147.28Z"/><path class="cls-22" d="M327.78,126.78c-2.6-3-7,0-7,0s-1-4.16-3.18-3.58-13.68,4.28-18.86,6.44-6.7,5-7.09,7.32-3.2,2.06-3.2,2.06c-1.61-4.84-11.89-5-11.89-5s-20.16-.38-24.48,0-4,4.48-5.4,5-4.64-10.09-4.5-10.06-4.63,2.09-4.63,2.09L232,135.2c-1.63,1.23,4.05,3.26,5.54,4s.13,3.24,1,4.68,4.67,2,5.6,4.86.9,11.34,1,14.4,1.5,3.06,1.5,3.06,9.54.18,11.16.18,1.53-.9,1.53-.9c4.05-1.44,14.85-.72,21.67-.18s6-4.86,6-4.86l.18-12.82s.36-1.58,2.52,0,2.88,5.44,4.14,12.64a13.39,13.39,0,0,0,1.79,4.47l2.08,1.11.36,1.89s8-2.9,15.14-4.83c.33-.09.95-1,2.05-1.29a33.07,33.07,0,0,1,5.11-.27c7.1-.9,8.57-2.34,9.52-5.4S330.37,129.82,327.78,126.78Zm-48.4,34c-4-.18-4.27-5-4.27-5l-2.52.9c-2.52.9-10.32-.9-10.32-.9.49,1.8-5.7,2.34-7.68,1.62s-1-15.3-1-15.3c1.57-2.16,5.64-.54,9.42-.9s18-1.44,18-1.44-.69,18,0,19.8S279.38,160.78,279.38,160.78Zm38.93-4.68c-1.8.54-12.78.9-14.22.9s-2.34,2.34-4.32,3.06-2.69-21.78-2.69-21.78c-.07-1.8,11.33.72,14-2.52s8.53-3.24,8.53-3.24L319.57,152S320.11,155.56,318.31,156.1Z"/><path class="cls-23" d="M270.43,142.24s-2.1,4.8-.36,6.06,4.92.24,5.46-1.62,1.62-4.38.6-4.44S272.35,140.56,270.43,142.24Z"/><path class="cls-23" d="M310.39,141s3.21-.09,3.54,2.1.48,3.76-.42,4.46a3.91,3.91,0,0,1-5.15-.62C306.73,145,307.89,140.44,310.39,141Z"/><path class="cls-24" d="M268.4,142.5s-6.13,2.2-7,8.39c-.77,5.58,3.4,7,5.84,7.37s9.12-1.08,9.29-5.58.29-8.49,0-9.54-1.29,1.24-1.68,2.15c-.68,1.57-.59,2.27-1.62,2.77-1.26.6-3.48.06-3.36-1.77C270,144.9,272.71,140,268.4,142.5Z"/><path class="cls-24" d="M311.83,141.51s-3.88-.23-3.47,3.31,4.43,2.58,5.39,0,.84,10.65,0,11.77-9.48,2.57-10.74-1.39-3.06-9.54,0-13S311.11,140.07,311.83,141.51Z"/></g></g></g></svg>