<svg viewBox="0 0 512 512" xmlns="http://www.w3.org/2000/svg"><g><path d="m409.204 186.236c-4.142 0-7.5 3.357-7.5 7.5v291.095c0 6.71-5.459 12.169-12.168 12.169h-267.07c-6.709 0-12.168-5.459-12.168-12.169v-52.606c0-4.143-3.358-7.5-7.5-7.5s-7.5 3.357-7.5 7.5v52.606c0 14.981 12.188 27.169 27.168 27.169h267.07c14.98 0 27.168-12.188 27.168-27.169v-291.095c0-4.142-3.358-7.5-7.5-7.5z"/><path d="m427.499 71.241h-11.692l-4.339-21.694c-1.615-8.074-8.764-13.935-16.998-13.935h-59.845c-3.562-20.207-21.233-35.612-42.446-35.612h-72.357c-21.213 0-38.884 15.405-42.446 35.612h-59.846c-8.234 0-15.383 5.86-16.998 13.935l-4.339 21.694h-11.692c-9.558 0-17.334 7.776-17.334 17.335v19.72c0 9.558 7.776 17.334 17.334 17.334h10.795v272.071c0 4.143 3.358 7.5 7.5 7.5s7.5-3.357 7.5-7.5v-272.071h291.407v33.583c0 4.143 3.358 7.5 7.5 7.5s7.5-3.357 7.5-7.5v-33.583h10.795c9.558 0 17.334-7.776 17.334-17.334v-19.72c.001-9.558-7.775-17.335-17.333-17.335zm-207.678-56.241h72.357c12.904 0 23.797 8.742 27.088 20.612h-126.533c3.291-11.87 14.185-20.612 27.088-20.612zm-104.58 37.488c.217-1.087 1.18-1.876 2.289-1.876h276.94c1.109 0 2.072.789 2.289 1.876l3.751 18.753h-289.019zm314.592 55.808c0 1.287-1.047 2.334-2.334 2.334h-342.998c-1.287 0-2.334-1.047-2.334-2.334v-19.72c0-1.287 1.047-2.335 2.334-2.335h342.997c1.287 0 2.334 1.048 2.334 2.335v19.72z"/><path d="m323.53 315.503c3.721 1.818 8.212.276 10.031-3.445 5.792-11.853 8.729-24.583 8.729-37.838 0-47.58-38.709-86.29-86.29-86.29s-86.29 38.71-86.29 86.29 38.709 86.29 86.29 86.29c19.735 0 38.322-6.504 53.75-18.809 3.238-2.582 3.77-7.302 1.188-10.54-2.583-3.237-7.302-3.77-10.54-1.187-12.744 10.164-28.097 15.536-44.398 15.536-39.31 0-71.29-31.98-71.29-71.29s31.98-71.29 71.29-71.29 71.29 31.98 71.29 71.29c0 10.953-2.424 21.468-7.206 31.252-1.818 3.721-.276 8.213 3.446 10.031z"/><path d="m287.818 231.241c-21.146-5.023-42.939 1.143-58.296 16.5s-21.526 37.15-16.5 58.298c1.322 5.561 5.598 9.836 11.16 11.159 4.85 1.152 9.733 1.717 14.566 1.717 16.242 0 31.902-6.376 43.738-18.21 0 0 0 0 0-.001 15.356-15.355 21.521-37.151 16.493-58.305-1.324-5.561-5.601-9.837-11.161-11.158zm-15.94 58.857c-9.39 9.39-21.957 14.24-34.903 13.752l33.715-33.715c2.929-2.93 2.929-7.678 0-10.607-2.929-2.928-7.678-2.928-10.606 0l-33.732 33.732c-.476-12.935 4.377-25.513 13.776-34.911 8.963-8.963 20.818-13.799 33.133-13.799 3.688 0 7.418.434 11.124 1.32 3.814 16.047-.861 32.581-12.507 44.228z"/><path d="m233.189 453.987c0 4.143 3.358 7.5 7.5 7.5h30.621c4.142 0 7.5-3.357 7.5-7.5s-3.358-7.5-7.5-7.5h-30.621c-4.142 0-7.5 3.358-7.5 7.5z"/><path d="m261.811 440.488c4.142 0 7.5-3.357 7.5-7.5s-3.358-7.5-7.5-7.5h-11.621c-4.142 0-7.5 3.357-7.5 7.5s3.358 7.5 7.5 7.5z"/></g></svg>
