<svg xmlns="http://www.w3.org/2000/svg" viewBox="0 0 100 66.57"><path d="M33.76,35.92c3.74,0,7.7-1.2,7.7-3.42V28.3a1.84,1.84,0,0,0,0-.41,2,2,0,0,0-.35-.73,3,3,0,0,0-.28-.34l-.25-.22-.11-.08-.17-.12-.15-.1L40,26.2l-.19-.1L39.62,26l-.22-.11-.13-.06L39,25.75l-.1,0-.3-.11-.07,0-.35-.11A14.32,14.32,0,0,0,35.81,25l-1-.09h0l-1,0h0c-3.27,0-6.72.92-7.53,2.64a1.93,1.93,0,0,0-.17.79v4.2C26.06,34.72,30,35.92,33.76,35.92Zm6.4-3.42c0,.86-2.49,2.12-6.4,2.12v-2.9a12.68,12.68,0,0,0,6.4-1.46ZM27.39,28.13a1.09,1.09,0,0,1,.08-.15.21.21,0,0,1,0-.06l.08-.1.06-.07.1-.09.09-.07.1-.08.13-.09.11-.06.16-.1.1-.05.2-.1.08,0a10.15,10.15,0,0,1,2.84-.75h0l.51-.06h0l.55,0h0c.35,0,.72,0,1.1,0s.79,0,1.17,0a14.13,14.13,0,0,1,1.72.22l.11,0a10,10,0,0,1,1.14.28l.11,0,.48.17h0l.41.18.1,0,.34.19h0l.28.18.06.05.22.19a.83.83,0,0,1,.25.52c0,.87-2.49,2.12-6.39,2.12l-.84,0-.24,0-.58,0-.23,0-.63-.09h-.09l-.69-.14-.09,0-.55-.14-.1,0a5.31,5.31,0,0,1-2-1l0,0-.1-.09-.1-.13,0-.06-.05-.1a.08.08,0,0,0,0-.05.77.77,0,0,1,0-.15A.33.33,0,0,1,27.39,28.13Z"/><path class="cls-1" d="M50.16,29.74c3.73,0,7.7-1.2,7.7-3.42v-4.2a1.75,1.75,0,0,0,0-.4,1.92,1.92,0,0,0-.34-.74,2.28,2.28,0,0,0-.29-.33l-.25-.22-.1-.08-.18-.13-.15-.1-.15-.1-.19-.1L56,19.85l-.23-.11-.12-.06-.26-.11-.1,0L55,19.42l-.07,0-.35-.11a14.2,14.2,0,0,0-2.37-.48q-.51-.06-1-.09h0q-.51,0-1,0h0c-3.27,0-6.72.92-7.53,2.64a1.94,1.94,0,0,0-.18.79v4.2C42.46,28.54,46.42,29.74,50.16,29.74Zm6.39-3.42c0,.86-2.49,2.12-6.39,2.12v-2.9a12.64,12.64,0,0,0,6.39-1.46ZM43.79,22a1,1,0,0,1,.07-.15l0-.05.08-.11a.46.46,0,0,0,.07-.07l.09-.09.1-.07a.39.39,0,0,1,.1-.08l.12-.09a.41.41,0,0,0,.11-.07l.16-.09.11,0a1.24,1.24,0,0,1,.2-.1l.07,0A10.87,10.87,0,0,1,48,20.14h0l.51-.06h0l.54,0h0c.36,0,.72,0,1.11,0s.79,0,1.16,0a16.19,16.19,0,0,1,1.72.21l.11,0c.42.09.8.18,1.15.29l.1,0,.48.17h0l.4.18.1,0,.34.19h0l.28.19.06.05.22.19a.83.83,0,0,1,.25.52c0,.86-2.49,2.12-6.39,2.12l-.84,0-.24,0-.58,0-.23,0-.63-.08h-.09l-.69-.14-.09,0-.54-.14-.11,0a5.31,5.31,0,0,1-2-1s0,0,0,0a.47.47,0,0,1-.1-.1.64.64,0,0,1-.1-.13s0,0,0,0l-.05-.11s0,0,0,0a.4.4,0,0,1,0-.15.51.51,0,0,1,0-.17Z"/><path class="cls-1" d="M66.55,23.56c3.74,0,7.71-1.2,7.71-3.42v-4.2a1.75,1.75,0,0,0-.05-.4,1.94,1.94,0,0,0-.35-.74,2.22,2.22,0,0,0-.28-.33l-.25-.22-.11-.08a1.09,1.09,0,0,0-.17-.13l-.15-.1-.15-.09-.19-.11-.14-.07-.23-.11-.12-.05-.27-.11-.1,0-.3-.11-.07,0L71,13.11a14.11,14.11,0,0,0-2.38-.48q-.5-.06-1-.09h0c-.34,0-.68,0-1,0h0c-3.26,0-6.71.92-7.52,2.64a1.79,1.79,0,0,0-.18.79v4.2C58.85,22.36,62.82,23.56,66.55,23.56ZM73,20.14c0,.86-2.49,2.12-6.4,2.12V19.37A12.65,12.65,0,0,0,73,17.9ZM60.19,15.77a.51.51,0,0,1,.07-.15l0,0a.76.76,0,0,1,.08-.11l.06-.06.1-.09.09-.08.11-.08.12-.08A.41.41,0,0,1,61,15l.16-.09.1-.06.2-.1.08,0A10.51,10.51,0,0,1,64.35,14h0a4.35,4.35,0,0,1,.52-.06h0l.55,0h0c.35,0,.72,0,1.1,0s.79,0,1.17,0a14.13,14.13,0,0,1,1.72.22l.11,0a10,10,0,0,1,1.14.28l.11,0,.48.17h0l.41.18.09,0,.35.19h0l.28.18.06.05a2,2,0,0,1,.21.2.76.76,0,0,1,.26.51c0,.87-2.49,2.12-6.4,2.12l-.84,0-.24,0-.57,0-.23,0L64,17.87H64l-.69-.14-.1,0-.54-.14-.1,0a5.31,5.31,0,0,1-2-1l-.05,0-.09-.1-.11-.13,0-.06a.47.47,0,0,1,0-.1l0-.05a.77.77,0,0,1,0-.15.55.55,0,0,1,0-.17Z"/><path class="cls-1" d="M100,14.36h0a.51.51,0,0,0,0-.17.14.14,0,0,0,0-.06l0-.1,0-.06-.08-.09,0,0s0,0,0,0a.61.61,0,0,0-.14-.07h0l-8.93-3.41V9.76a1.75,1.75,0,0,0,0-.4,1.94,1.94,0,0,0-.35-.74A1.81,1.81,0,0,0,90,8.29a2.5,2.5,0,0,0-.24-.22L89.62,8l-.17-.13-.15-.1-.16-.09L89,7.56l-.14-.07-.22-.11-.13,0-.26-.11-.1,0-.3-.11-.07,0-.35-.11A15.19,15.19,0,0,0,85,6.46l-1-.09h0c-.34,0-.69,0-1,0h0a17.84,17.84,0,0,0-2.32.15L74.1,4V3.42a1.83,1.83,0,0,0,0-.4,2,2,0,0,0-.34-.74A4.28,4.28,0,0,0,73.42,2l-.25-.22-.1-.08-.18-.13-.15-.09-.15-.1-.19-.1-.14-.08L72,1,71.91,1,71.65.88l-.1,0L71.24.73l-.07,0L70.82.6A14.2,14.2,0,0,0,68.45.12l-1-.09h0l-1,0h0c-3.26,0-6.71.92-7.52,2.64a1.91,1.91,0,0,0-.18.79v.4L52.11,6.31l.17,0-.23,0q-.51-.06-1-.09c-.34,0-.69,0-1,0-3.27,0-6.71.92-7.52,2.64a1.75,1.75,0,0,0-.18.78V10l-6.58,2.48h-.06c-.34,0-.68-.07-1-.09h0q-.51,0-1,0h0c-3.26,0-6.71.92-7.52,2.64a1.75,1.75,0,0,0-.18.78v.41l-6.58,2.48.14,0-.2,0q-.51-.06-1-.09h0l-1,0h0c-3.27,0-6.72.92-7.53,2.64a1.85,1.85,0,0,0-.17.78v.4L.42,25.79h0a.61.61,0,0,0-.14.07v0l-.05,0A.3.3,0,0,0,.14,26l0,.06a.31.31,0,0,0,0,.1.14.14,0,0,0,0,.06.47.47,0,0,0,0,.17H0V53.25a.66.66,0,0,0,.42.61L33.53,66.53h0a.49.49,0,0,0,.21,0,.52.52,0,0,0,.21,0h0L99.58,41.82a.66.66,0,0,0,.42-.61V14.36ZM80.76,7.79c.17,0,.34,0,.52-.06h0l.54-.05h0c.35,0,.72,0,1.1,0s.79,0,1.16,0a16.28,16.28,0,0,1,1.73.22l.1,0c.42.08.8.18,1.15.28l.1,0,.49.16h0a3.89,3.89,0,0,1,.41.17l.09.05.35.18h0l.27.18.07.05a2,2,0,0,1,.21.2.76.76,0,0,1,.26.51c0,.87-2.49,2.12-6.4,2.12l-.84,0-.24,0-.57,0-.23,0-.64-.09h-.08l-.69-.14-.1,0L79,11.38l-.1,0a5.16,5.16,0,0,1-2-1l-.05,0-.1-.1-.1-.12,0-.06L76.6,10l0-.05a.4.4,0,0,1,0-.15.55.55,0,0,1,0-.17.55.55,0,0,1,.08-.15.1.1,0,0,1,0,0l.07-.11.07-.06.09-.09.1-.08.1-.08.12-.08.11-.07.16-.09.11-.06.2-.1.08,0a10.41,10.41,0,0,1,2.84-.75Zm8.59,3.94V14c0,.87-2.49,2.12-6.4,2.12V13.19A12.79,12.79,0,0,0,89.35,11.73ZM60,3.26a.51.51,0,0,1,.07-.15l0-.06.08-.1.06-.07.1-.09.09-.07.11-.09.12-.08.11-.07L61,2.39l.1-.05.2-.1.08,0a10.51,10.51,0,0,1,2.84-.75h0l.51-.06h0l.55,0h0c.35,0,.72,0,1.1,0s.79,0,1.17,0a14.2,14.2,0,0,1,1.72.21l.11,0a10,10,0,0,1,1.14.29l.11,0c.17.05.33.11.48.17h0l.4.18.1,0a2.74,2.74,0,0,1,.34.19h0c.11.06.19.13.28.19l.06.05.22.19a.81.81,0,0,1,.25.52c0,.86-2.49,2.12-6.39,2.12q-.44,0-.84,0h-.24l-.58,0-.23,0-.63-.08-.09,0-.69-.13-.09,0-.55-.14-.1,0a5.47,5.47,0,0,1-2-1l0,0-.1-.1a1.13,1.13,0,0,1-.1-.13l0,0A.54.54,0,0,1,60,3.62l0-.05a.68.68,0,0,1,0-.14.51.51,0,0,1,0-.17ZM72.79,5.39V7.62c0,.87-2.49,2.12-6.39,2.12V6.85A12.64,12.64,0,0,0,72.79,5.39ZM43.63,9.44s0-.1.08-.16l0,0,.08-.1.06-.07L44,9l.09-.08.1-.08.13-.08.11-.07.16-.09.1-.05.2-.1.08,0a10.51,10.51,0,0,1,2.84-.75h0l.52-.06h0l.54-.05h0c.35,0,.72,0,1.1,0s.79,0,1.16,0a13.63,13.63,0,0,1,1.72.22l.11,0c.42.08.8.18,1.15.28l.1,0,.48.16h0a3.89,3.89,0,0,1,.41.17l.09.05.35.18h0l.27.18.07.05a2,2,0,0,1,.21.2.78.78,0,0,1,.26.51c0,.87-2.5,2.12-6.4,2.12l-.84,0h-.24l-.57,0-.23,0-.64-.09H47.4l-.69-.13-.1,0-.54-.14-.1,0a5.31,5.31,0,0,1-2-1l0,0-.1-.1a1.47,1.47,0,0,0-.1-.13l0-.06a.47.47,0,0,1-.05-.1l0-.05a.8.8,0,0,1,0-.15.45.45,0,0,1,0-.16ZM56.4,11.57V13.8c0,.87-2.49,2.12-6.4,2.12V13A12.79,12.79,0,0,0,56.4,11.57Zm-29.16,4a.56.56,0,0,1,.07-.16l0-.05a.39.39,0,0,1,.08-.1l.06-.07.1-.09.09-.08.11-.08.12-.08a.41.41,0,0,1,.11-.07l.16-.09.1-.06.2-.1.08,0a10.51,10.51,0,0,1,2.84-.75h0a4.18,4.18,0,0,1,.51-.06h0l.55,0h0c.35,0,.72,0,1.1,0s.79,0,1.17,0a14.13,14.13,0,0,1,1.72.22l.11,0a10,10,0,0,1,1.14.28l.11,0,.48.17h0a3.89,3.89,0,0,1,.41.17l.09.05.35.18h0l.27.18.07.05a2,2,0,0,1,.21.2.76.76,0,0,1,.26.51c0,.87-2.49,2.12-6.4,2.12l-.84,0h-.24L32,17.82l-.23,0-.64-.09H31l-.69-.13-.1,0-.54-.14-.1,0a5.31,5.31,0,0,1-2-1l0,0-.09-.1-.11-.13,0-.06a.47.47,0,0,1-.05-.1l0-.05a.77.77,0,0,1,0-.15A.45.45,0,0,1,27.24,15.62ZM40,17.75V20c0,.86-2.49,2.12-6.4,2.12V19.21A12.76,12.76,0,0,0,40,17.75ZM10.84,21.8a1.11,1.11,0,0,1,.07-.16l0-.05.08-.11.07-.06.09-.09.09-.08.11-.08.12-.08.11-.07.16-.09.11-.06.2-.1.07,0A10.49,10.49,0,0,1,15,20h0c.17,0,.34,0,.52-.06h0l.54-.05h0c.36,0,.72,0,1.11,0s.79,0,1.16,0a16.08,16.08,0,0,1,1.72.22l.11,0c.42.08.8.18,1.15.28l.1,0,.48.16h0l.41.17.09,0,.35.18h0l.27.18a.18.18,0,0,0,.07.05,2,2,0,0,1,.21.2.78.78,0,0,1,.26.51c0,.87-2.5,2.12-6.4,2.12l-.84,0h-.24L15.56,24l-.23,0-.64-.09h-.08l-.69-.13-.1,0-.54-.14-.1,0a5.45,5.45,0,0,1-2-1,.08.08,0,0,0,0,0l-.1-.1a1.47,1.47,0,0,0-.1-.13l0-.06a.47.47,0,0,1-.05-.1s0,0,0-.05a.4.4,0,0,1,0-.15A.45.45,0,0,1,10.84,21.8ZM23.6,23.92v2.24c0,.86-2.49,2.12-6.39,2.12V25.39A12.64,12.64,0,0,0,23.6,23.92Zm-6.39,5.66c3.73,0,7.7-1.2,7.7-3.42V22a1.75,1.75,0,0,0-.05-.4,1.92,1.92,0,0,0-.34-.74,1.81,1.81,0,0,0-.29-.33L24,20.27l-.1-.08-.18-.13-.15-.1-.15-.09-.19-.11-.14-.07-.23-.11-.12,0-.26-.11-.1,0-.31-.11-.07,0-.27-.08,4.19-1.58V20c0,2.23,4,3.43,7.7,3.43S41.31,22.2,41.31,20v-4.2a1.75,1.75,0,0,0-.05-.4,2,2,0,0,0-.35-.74,4.09,4.09,0,0,0-.28-.33l-.25-.22L40.27,14a1.09,1.09,0,0,0-.17-.13l-.15-.1-.16-.09-.18-.11-.14-.07-.23-.11-.12-.05-.27-.11-.1,0-.3-.11-.07,0L38.11,13,42.3,11.4h0v2.4c0,2.23,4,3.43,7.7,3.43s7.7-1.2,7.7-3.43V9.6a1.81,1.81,0,0,0,0-.4,2.18,2.18,0,0,0-.35-.74A2.86,2.86,0,0,0,57,8.13a1.79,1.79,0,0,0-.25-.22l-.1-.08L56.5,7.7l-.15-.09-.16-.1L56,7.41l-.14-.08-.22-.11-.13,0-.26-.11-.1,0-.31-.11-.07,0-.26-.09,4.18-1.58v2.4c0,2.23,4,3.43,7.7,3.43s7.71-1.2,7.71-3.43V5.39L78.3,7a4.57,4.57,0,0,0-2.87,2,1.72,1.72,0,0,0-.18.78V14c0,2.23,4,3.43,7.7,3.43s7.7-1.21,7.7-3.43V11.73l6.86,2.62-63.75,24L3.24,26.69l-.75-.29,7-2.64v2.4c0,2.22,4,3.42,7.7,3.42ZM98.69,40.76,34.41,65V39.52l34.7-13.07L98.69,15.3Z"/></svg>
