<svg xmlns="http://www.w3.org/2000/svg" fill="currentColor" viewBox="0 0 100 100">
  <path d="M79.9 75.11H57a17.29 17.29 0 0 0 5.42-3.49.86.86 0 0 0 .29-.28 17.5 17.5 0 0 0 3.4-4.71.72.72 0 0 0 .09-.2 17.3 17.3 0 0 0 1.48-4.89 18.48 18.48 0 0 0 .17-2.54 17.32 17.32 0 0 0-1.1-6.09 3.07 3.07 0 0 0-2.85-2H37.32a15.77 15.77 0 0 1 2-2.64.44.44 0 0 1 .29-.11h15.17a3.8 3.8 0 1 0 0-7.59h-2.64a.69.69 0 0 1-.69-.7v-3.18h.78a1.75 1.75 0 0 0 1.63-1.09l1.39-3.47a1.94 1.94 0 0 0 1.94-1.94h23.19a3.68 3.68 0 1 0 0-7.36H57.2a1.94 1.94 0 0 0-1.94-1.94h-3.81v-.37a4.16 4.16 0 0 0-4.16-4.15H31.58a4.16 4.16 0 0 0-4.16 4.15v7.74h-6.88a1.72 1.72 0 0 1 0-3.43h3.27a1 1 0 0 0 0-2h-3.27a3.68 3.68 0 0 0 0 7.36h.83v1.27a4 4 0 0 0 8 0v-1.31h14.35a1.94 1.94 0 0 0 1.94 1.94l1.4 3.47a1.73 1.73 0 0 0 1.62 1.09h.79v3.17a2.67 2.67 0 0 0 2.66 2.67h2.64a1.83 1.83 0 0 1 1.83 1.82 1.84 1.84 0 0 1-1.83 1.83H39.65a2.36 2.36 0 0 0-1.7.72 17.16 17.16 0 0 0-3.16 4.53.43.43 0 0 0 0 .07 17.43 17.43 0 0 0 9.19 23.61H21a4.17 4.17 0 0 0 0 8.34h58.9a4.17 4.17 0 0 0 0-8.34ZM57.2 24.75h23.18a1.72 1.72 0 1 1 0 3.43H57.2Zm-29.78 6.67a2 2 0 0 1-4.09 0v-1.27h4.09Zm18.24-10.61a1.94 1.94 0 0 0-1.94 1.94H33a1 1 0 0 0 0 2h10.72v3.43H29.39v-7.74a2.19 2.19 0 0 1 2.19-2.19h15.71a2.19 2.19 0 0 1 2.19 2.19v.37Zm0 9.35v-7.38h9.54v7.38Zm3.15 4.57-1.05-2.6h5.34l-1.05 2.6ZM36.29 52.87h27.6a1.1 1.1 0 0 1 1 .7 14.76 14.76 0 0 1 .61 2.06H35.4a15.86 15.86 0 0 1 .89-2.76Zm-.89 9.45h5.84a1 1 0 0 0 0-2H35.1c0-.45-.06-.91-.06-1.37s0-.93.06-1.38h30.72c0 .45.06.91.06 1.37s0 .93-.06 1.38h-20a1 1 0 0 0 0 2h19.7a14.84 14.84 0 0 1-.9 2.76H36.29a15.59 15.59 0 0 1-.89-2.76Zm1.91 4.73h26.28a15.82 15.82 0 0 1-2.17 2.75H39.48a15.35 15.35 0 0 1-2.17-2.75Zm4.54 4.72h17.2a15.27 15.27 0 0 1-8.59 2.63h-.12a15.23 15.23 0 0 1-8.49-2.63Zm38.05 9.71H21a2.2 2.2 0 1 1 0-4.4h58.9a2.2 2.2 0 0 1 0 4.4Z" data-name="Capa 2"/>
</svg>
