<svg xmlns="http://www.w3.org/2000/svg" fill="currentColor" data-name="Layer 3" viewBox="0 0 64 64">
  <path d="m23 24.414 3.293 3.293A1 1 0 0 0 28 27v-4a3 3 0 0 0 3-3V4a3 3 0 0 0-3-3H4a3 3 0 0 0-3 3v16a3 3 0 0 0 3 3h1v4H4a3 3 0 0 0-3 3v7a1 1 0 0 0 .293.707L5 41.414V62h2V41a1 1 0 0 0-.293-.707L3 36.586V30a1 1 0 0 1 1-1h1v5a1 1 0 0 0 1 1 3 3 0 0 1 3 3v2h2v-2a5.008 5.008 0 0 0-4-4.9V18a1 1 0 0 1 2 0v13h2V14a1 1 0 0 1 2 0v17h2V18a1 1 0 0 1 2 0v13h2v-9a1 1 0 0 1 2 0v14.764l-1.895 3.789A1 1 0 0 0 19 41v21h2V41.236l1.9-3.789A1 1 0 0 0 23 37ZM20 19a2.966 2.966 0 0 0-1 .184V18a3 3 0 0 0-3-3 2.966 2.966 0 0 0-1 .184V14h10v-2H14.22a2.964 2.964 0 0 0-4.44 0H7v2h2v1.184A2.966 2.966 0 0 0 8 15a3 3 0 0 0-3 3v3H4a1 1 0 0 1-1-1V4a1 1 0 0 1 1-1h24a1 1 0 0 1 1 1v16a1 1 0 0 1-1 1h-1a1 1 0 0 0-1 1v2.586l-3.047-3.047A3 3 0 0 0 20 19Z"/>
  <path d="M42 32a2.966 2.966 0 0 0-1 .184V31a3 3 0 0 0-3-3 2.966 2.966 0 0 0-1 .184V27a3 3 0 0 0-6 0v1.184A2.966 2.966 0 0 0 30 28a3 3 0 0 0-3 3v9h-1a3 3 0 0 0-3 3v7a1 1 0 0 0 .293.707L27 54.414V62h2v-8a1 1 0 0 0-.293-.707L25 49.586V43a1 1 0 0 1 1-1h1v5a1 1 0 0 0 1 1 3 3 0 0 1 3 3v2h2v-2a5.008 5.008 0 0 0-4-4.9V31a1 1 0 0 1 2 0v13h2V27a1 1 0 0 1 2 0v17h2V31a1 1 0 0 1 2 0v13h2v-9a1 1 0 0 1 2 0v14.764l-1.9 3.789A1 1 0 0 0 41 54v8h2v-7.764l1.9-3.789A1 1 0 0 0 45 50V35a3 3 0 0 0-3-3ZM50 1a13 13 0 0 0-7 23.956V30a1 1 0 0 0 1.555.832L50.309 27A13 13 0 0 0 50 1Zm0 24a1.006 1.006 0 0 0-.555.168L45 28.131V24.4a1 1 0 0 0-.5-.866A11 11 0 1 1 50 25Z"/>
  <path d="M50 5a9 9 0 1 0 9 9 9.01 9.01 0 0 0-9-9Zm7 9a6.945 6.945 0 0 1-.451 2.449L51 12.485V7.08A7.006 7.006 0 0 1 57 14Zm-8-6.92v5.4l-5.549 3.964A6.97 6.97 0 0 1 49 7.08Zm-4.577 11.133L49 14.943v5.977a6.993 6.993 0 0 1-4.577-2.707ZM51 20.92v-5.977l4.577 3.27A6.993 6.993 0 0 1 51 20.92ZM7 7h18v2H7z"/>
</svg>
