<svg xmlns="http://www.w3.org/2000/svg" fill="currentColor" viewBox="0 0 64 64">
  <path d="M57 29a3.003 3.003 0 0 0 3-3V10a3.003 3.003 0 0 0-3-3H31a3.003 3.003 0 0 0-3 3v7H11a3.003 3.003 0 0 0-3 3v27H7a3.003 3.003 0 0 0-3 3v4a3.003 3.003 0 0 0 3 3h50a3.003 3.003 0 0 0 3-3v-4a3.003 3.003 0 0 0-3-3h-1V29ZM30 10a1.001 1.001 0 0 1 1-1h26a1.001 1.001 0 0 1 1 1v16a1.001 1.001 0 0 1-1 1H41.5a1 1 0 0 0-.636.228L34 32.881V28a1 1 0 0 0-1-1h-2a1.001 1.001 0 0 1-1-1Zm28 40v4a1.001 1.001 0 0 1-1 1H7a1.001 1.001 0 0 1-1-1v-4a1.001 1.001 0 0 1 1-1h16v1a3.003 3.003 0 0 0 3 3h12a3.003 3.003 0 0 0 3-3v-1h16a1.001 1.001 0 0 1 1 1Zm-33-1h14v1a1.001 1.001 0 0 1-1 1H26a1.001 1.001 0 0 1-1-1Zm29-2H10V20a1.001 1.001 0 0 1 1-1h17v7a3.003 3.003 0 0 0 3 3h1v6a1 1 0 0 0 1.636.772L41.859 29H54Z"/>
  <path d="M37.232 24.64a1 1 0 1 0 1.536-1.28L34.302 18l4.466-5.36a1 1 0 1 0-1.536-1.28l-5 6a1 1 0 0 0 0 1.28ZM49.36 24.768a1 1 0 0 0 1.408-.128l5-6a1 1 0 0 0 0-1.28l-5-6a1 1 0 1 0-1.536 1.28L53.698 18l-4.466 5.36a1 1 0 0 0 .128 1.408ZM13 24h12a1 1 0 0 0 0-2H13a1 1 0 0 0 0 2ZM13 28h2a1 1 0 0 0 0-2h-2a1 1 0 0 0 0 2ZM25 26h-6a1 1 0 0 0 0 2h6a1 1 0 0 0 0-2ZM13 32h12a1 1 0 0 0 0-2H13a1 1 0 0 0 0 2ZM22 35a1 1 0 0 0 1 1h6a1 1 0 0 0 0-2h-6a1 1 0 0 0-1 1ZM13 36h6a1 1 0 0 0 0-2h-6a1 1 0 0 0 0 2ZM33 39a1 1 0 0 0 1 1h16a1 1 0 0 0 0-2H34a1 1 0 0 0-1 1ZM13 40h17a1 1 0 0 0 0-2H13a1 1 0 0 0 0 2ZM43 42a1 1 0 0 0 0 2h8a1 1 0 0 0 0-2ZM39 42H26a1 1 0 0 0 0 2h13a1 1 0 0 0 0-2ZM22 42h-9a1 1 0 0 0 0 2h9a1 1 0 0 0 0-2ZM41.684 24.949a.999.999 0 0 0 1.265-.633l4-12a1 1 0 0 0-1.898-.632l-4 12a1 1 0 0 0 .633 1.265Z"/>
</svg>
