<svg xmlns="http://www.w3.org/2000/svg" fill="currentColor" data-name="Layer 3" viewBox="0 0 64 64">
  <path d="M41 35a3 3 0 1 0-3-3 3 3 0 0 0 3 3Zm0-4a1 1 0 1 1-1 1 1 1 0 0 1 1-1ZM23 29a3 3 0 1 0 3 3 3 3 0 0 0-3-3Zm0 4a1 1 0 1 1 1-1 1 1 0 0 1-1 1Z"/>
  <path d="m60.433 22.426-6.866-5.617A8.016 8.016 0 0 0 48.5 15h-3.721A13.947 13.947 0 0 0 35 11h-6a13.947 13.947 0 0 0-9.779 4H15.5a8.016 8.016 0 0 0-5.066 1.809l-6.866 5.617A6.969 6.969 0 0 0 1 27.843V28a4 4 0 0 0 4 4h.4a6 6 0 0 0 4.916-2.56l4.91-7.013c.009-.013.021-.022.031-.035A14.01 14.01 0 0 0 15 25v8.646a1 1 0 0 1-.628.928l-.6.24A5.97 5.97 0 0 0 10 40.385v1.7A7 7 0 0 0 4 49a3 3 0 0 0 3 3h1.78a2.964 2.964 0 0 0 4.44 0H15a2.985 2.985 0 0 0 2.22-1h29.56A2.985 2.985 0 0 0 49 52h1.78a2.964 2.964 0 0 0 4.44 0H57a3 3 0 0 0 3-3 7 7 0 0 0-6-6.92v-1.7a5.97 5.97 0 0 0-3.772-5.571l-.6-.24a.994.994 0 0 1-.628-.923V25a14.01 14.01 0 0 0-.253-2.608c.01.012.022.022.031.034l4.91 7.014A6 6 0 0 0 58.6 32h.4a4 4 0 0 0 4-4v-.157a6.972 6.972 0 0 0-2.567-5.417Zm-46.85-1.146-4.91 7.014A4 4 0 0 1 5.4 30H5a2 2 0 0 1-2-2v-.157a4.977 4.977 0 0 1 1.834-3.869l6.866-5.618A6.023 6.023 0 0 1 15.5 17h2.028a13.971 13.971 0 0 0-1.593 3.013 3 3 0 0 0-2.352 1.267ZM15 50h-1v-1h-2v1a1 1 0 0 1-2 0v-1H8v1H7a1 1 0 0 1-1-1 5 5 0 0 1 10 0 1 1 0 0 1-1 1Zm17-7c-3.4 0-4-.524-4-2a4 4 0 0 1 8 0c0 1.476-.6 2-4 2Zm26 6a1 1 0 0 1-1 1h-1v-1h-2v1a1 1 0 0 1-2 0v-1h-2v1h-1a1 1 0 0 1-1-1 5 5 0 0 1 10 0Zm-8.515-12.329A3.981 3.981 0 0 1 52 40.385v1.7A7 7 0 0 0 46 49H33v-4.013c2.139-.071 5-.561 5-3.987a6 6 0 0 0-12 0c0 3.426 2.861 3.916 5 3.987V49H18a7 7 0 0 0-6-6.92v-1.7a3.981 3.981 0 0 1 2.514-3.714l.6-.239A2.987 2.987 0 0 0 17 33.646V25a12.013 12.013 0 0 1 12-12h6a12.013 12.013 0 0 1 12 12v8.646a2.987 2.987 0 0 0 1.886 2.786ZM61 28a2 2 0 0 1-2 2h-.4a4 4 0 0 1-3.277-1.706l-4.911-7.015a2.994 2.994 0 0 0-2.35-1.266A13.971 13.971 0 0 0 46.473 17H48.5a6.023 6.023 0 0 1 3.8 1.356l6.866 5.618A4.98 4.98 0 0 1 61 27.843Z"/>
  <path d="M40 42h2v2h-2zM37 46h2v2h-2zM43 46h2v2h-2zM22 42h2v2h-2zM25 46h2v2h-2zM19 46h2v2h-2z"/>
</svg>
