<svg xmlns="http://www.w3.org/2000/svg" fill="currentColor" xml:space="preserve" viewBox="0 0 100 100">
  <path d="m64.11 67.394-1.991-4.279 14.078-6.707v10.681H92.65l3.386-1.696a1.35 1.35 0 0 1 1.847.507 1.356 1.356 0 0 1-.507 1.847l-4.562 2.383V85.5a2.337 2.337 0 0 1-2.339 2.336 2.336 2.336 0 0 1-2.339-2.336l.005-6.02-4.24 7.158a2.342 2.342 0 0 1-3.21.814 2.354 2.354 0 0 1-.809-3.216l3.948-6.641h-8.855V85.5c0 1.292-1.042 2.336-2.335 2.336s-2.345-1.044-2.345-2.336v-7.905c-.698 0-.767-.46-.767-.996v-5.895l.009-.005v-3.296l-5.427-.009z"/>
  <path d="m92.334 65.861 3.025-3.427-1.21-1.066-3.025 3.426zM94.754 71.982h4.033v-1.613h-4.033z"/>
  <circle cx="19.884" cy="17.831" r="6.032"/>
  <path d="m68.62 47.815-5.088-17.38c-.557-1.981-2.506-5.496-6.765-5.496h-11.45c-4.258 0-5.958 3.514-6.51 5.496l-3.419 10.782L32.3 31.068c-.654-1.968-2.833-5.542-7.167-5.542H14.651c-4.374 0-6.958 3.673-7.529 5.671l-5.32 17.519c-1.106 3.767 3.724 5.212 4.864 1.695l4.783-16.264 2.139.008-8.24 28.585h7.676v22.254c0 3.829 5.74 3.829 5.74 0l-.005-22.4h2.33v22.43c0 3.782 5.716 3.799 5.716 0V62.74h6.58l-7.234-28.586h1.815l4.791 16.071c.936 3.002 4.309 2.5 4.923.156.02-.055.047-.101.065-.158l5.283-16.728h1.952s-3.486 8.378-3.674 18.621c-.119 6.51 3.642 33.164 3.642 33.164.254 3.348 4.637 3.358 4.742 0l-.005-27.956h2.649l-.004 27.957c.104 3.358 4.437 3.348 4.738 0 0 0 3.762-26.654 3.643-33.164-.185-10.243-3.672-18.621-3.672-18.621h2.274l4.994 16c1.109 3.484 5.391 2.055 4.313-1.681zM58.901 23.24l-2.933-7.933c-.696-2.18-2.712-3.771-5.124-3.771-2.457 0-4.511 1.657-5.162 3.908l-2.805 7.796h16.024z"/>
</svg>
