<svg xmlns="http://www.w3.org/2000/svg" fill="currentColor" xml:space="preserve" viewBox="0 0 32 32">
  <circle cx="13" cy="15.5" r="1"/>
  <circle cx="19" cy="15.5" r="1"/>
  <path d="M19.646 19.146c-.86.86-2.189 1.354-3.646 1.354s-2.786-.493-3.646-1.354a.5.5 0 1 0-.708.708C12.692 20.9 14.28 21.5 16 21.5s3.308-.6 4.354-1.646a.5.5 0 1 0-.708-.708z"/>
  <path d="M22 6.5h-1V4.3c0-.442-.373-.8-.833-.8h-8.334c-.46 0-.833.358-.833.8v2.2h-1a5 5 0 0 0-5 5v10a5 5 0 0 0 5 5v2h12v-2a5 5 0 0 0 5-5v-10a5 5 0 0 0-5-5zm-10-2h8v2h-8v-2zm9 23H11v-1h10v1zm5-6c0 2.206-1.794 4-4 4H10c-2.206 0-4-1.794-4-4v-10c0-2.206 1.794-4 4-4h12c2.206 0 4 1.794 4 4v10z"/>
</svg>
