<svg xmlns="http://www.w3.org/2000/svg" fill="currentColor" viewBox="0 0 26.458 26.458">
  <g font-family="sans-serif" font-weight="400" paint-order="stroke fill markers">
    <path d="M45 3c-3.843 0-7 3.157-7 7v2.998H15a2 2 0 0 0-2 2V25a2 2 0 0 0 2 2h3v63c0 3.843 3.157 7 7 7h50c3.843 0 7-3.157 7-7V27h3.002a2 2 0 0 0 2.002-2V14.998a2 2 0 0 0-2.002-2H62V10c0-3.843-3.157-7-7-7Zm0 4h10c1.697 0 3 1.303 3 3v2.998H42V10c0-1.697 1.303-3 3-3Zm-28 9.998h66.002V23H17ZM22 27h56v63c0 1.697-1.303 3-3 3H25c-1.697 0-3-1.303-3-3z" overflow="visible" style="line-height:normal;font-variant-ligatures:normal;font-variant-position:normal;font-variant-caps:normal;font-variant-numeric:normal;font-variant-alternates:normal;font-feature-settings:normal;text-indent:0;text-align:start;text-decoration-line:none;text-decoration-style:solid;text-decoration-color:#000;text-transform:none;text-orientation:mixed;white-space:normal;shape-padding:0;isolation:auto;mix-blend-mode:normal;solid-color:#000;solid-opacity:1" transform="scale(.26458)"/>
    <path d="M34.121 57.975a2 2 0 0 0-1.97 2.03c0 7.914 5.459 14.571 12.798 16.452l-1.976 1.139a2 2 0 1 0 2 3.463l6.12-3.538a2 2 0 0 0 .731-2.73l-3.537-6.12a2 2 0 0 0-1.822-1.026 2 2 0 0 0-1.639 3.027l1.11 1.918a12.954 12.954 0 0 1-9.784-12.584 2 2 0 0 0-2.03-2.031zM60.63 50.297l-3.536 6.121c-1.434 2.335 2.157 4.408 3.463 2l1.111-1.922a12.956 12.956 0 0 1-6.006 14.766c-2.408 1.306-.335 4.896 2 3.463 6.853-3.957 9.89-12.008 7.85-19.303l1.976 1.142c2.336 1.416 4.392-2.164 1.992-3.468l-6.119-3.53c-1.106-.638-2.261-.08-2.73.73zM49.607 43.006a17.07 17.07 0 0 0-12.605 5.119l.002-2.283c-.005-2.668-4.007-2.66-4.002.008l.004 7.064c0 1.266.964 2.002 1.998 2.002l7.068.002c2.759.096 2.76-4.091.002-3.998l-2.218-.002a12.955 12.955 0 0 1 15.789-2.182c2.328 1.403 4.378-2.152 1.998-3.465a16.881 16.881 0 0 0-8.035-2.265z" overflow="visible" style="line-height:normal;font-variant-ligatures:normal;font-variant-position:normal;font-variant-caps:normal;font-variant-numeric:normal;font-variant-alternates:normal;font-feature-settings:normal;text-indent:0;text-align:start;text-decoration-line:none;text-decoration-style:solid;text-decoration-color:#000;text-transform:none;text-orientation:mixed;white-space:normal;shape-padding:0;isolation:auto;mix-blend-mode:normal;solid-color:#000;solid-opacity:1" transform="scale(.26458)"/>
  </g>
</svg>
