<svg xmlns="http://www.w3.org/2000/svg" fill="currentColor" data-name="Layer 1" viewBox="0 0 100 100">
  <path d="M45.91 89a9 9 0 0 1-1.07-1.08c-.69-1-1.39-1.56-2.59-.67-.15.12-.77-.26-1.08-.52A.93.93 0 0 1 41 86c.33-4-2.26-6.82-4-10-4.09-7.54-10.4-12.84-17.36-17.56-3.81-2.59-6.68-6-7.42-10.76-.55-3.5-.38-6.44 3.69-7.59a10.23 10.23 0 0 1 6.73 1c5.1 2.77 9.46 7.09 13.32 12.1.11-1.83.24-3.28.27-4.73.11-6.39 1.68-12.8 5.52-18a9.52 9.52 0 0 1 8.57-4.22c5 .27 7.26 4.58 7.2 8.51-.14 8.57-2.62 16.55-5.79 24.41-2.32 5.77-4.33 11.67-6.48 17.51-.07.2-.09.43-.17.62a7.16 7.16 0 0 0 .78 6.92c.83 1.29 1.92 2.79.05 4.79Zm-4.33-12.5c1.24-3.36 2.4-6.61 3.62-9.83 3.32-8.8 6.51-16.16 8.65-25.49a21.87 21.87 0 0 0 .5-9c-.61-2.32-1.86-2.94-4.2-3.1a6.86 6.86 0 0 0-6.09 3.22A32 32 0 0 0 41 39.19C38.81 44.91 39.24 51 38.85 57c-.07 1.11-.49 1.47-1.4 1.4a3.14 3.14 0 0 1-2.86-1.65c-3-6-8.18-9.85-12.45-12.42C20.05 43 17.66 42 16 43.22c-1.39 1.06-.94 3.65-.46 5.21 1.28 4.15 4.46 6.93 8 9.27 5.22 3.46 10.27 7.13 13.89 12.39 1.44 2.09 2.76 4.26 4.15 6.42ZM78.9 17.69c.92-3 1.77-5.35 3.46-7.35A4.07 4.07 0 0 1 87 9.46a4.51 4.51 0 0 1 2.28 4.14c-.07 3.63-3.25 13.14-7.38 20.58-.34.63.17 1.55.28 2.39-1.3.76-2.24.1-3-.86-3.2-4.1-5-5.56-8.17-9.7-.45-.59-2.59-3.66-2.86-5a4.72 4.72 0 0 1 1.63-4.57c3.01-2.68 6.51-1.61 9.12 1.25ZM73 48.05a20.24 20.24 0 0 1 3.93-3 4.19 4.19 0 0 1 4.27 0c1.55.91 2.22 2 .79 5.44-.85 2.05-3.54 3.77-5.33 5.09-2.92 2.14-8.79 3.41-9.42 5.82-.39 1.47-.87 2.21-1.69 2.43a3.73 3.73 0 0 1-.78-2.33 11.34 11.34 0 0 0 .12-3.34c-.51-4-.45-11.73.45-13.68.79-1.71 2.08-3.22 4-2.68A4.7 4.7 0 0 1 73 45.59v2.46Z"/>
</svg>
