<svg xmlns="http://www.w3.org/2000/svg" fill="currentColor" data-name="Layer 30" viewBox="0 0 100 100">
  <path d="M79.53 25H76v-3.87A8.18 8.18 0 0 0 67.84 13H32.16A8.18 8.18 0 0 0 24 21.13V25h-3.53A11.48 11.48 0 0 0 9 36.51v45.22A5.31 5.31 0 0 0 14.3 87h71.4a5.31 5.31 0 0 0 5.3-5.27V36.51A11.48 11.48 0 0 0 79.53 25ZM26 21.13A6.17 6.17 0 0 1 32.16 15h35.68A6.17 6.17 0 0 1 74 21.13V25h-4.34v-3.79a2.21 2.21 0 0 0-2.2-2.21H32.54a2.21 2.21 0 0 0-2.2 2.21V25H26Zm41.66.08V25H32.34v-3.79a.2.2 0 0 1 .2-.21h34.92a.2.2 0 0 1 .2.21ZM19 85h-4.7a3.31 3.31 0 0 1-3.3-3.27V75h3v1.12A5.9 5.9 0 0 0 19 82Zm70-3.31A3.31 3.31 0 0 1 85.7 85H81v-3a5.9 5.9 0 0 0 5-5.83V75h3ZM89 73h-4a1 1 0 0 0-1 1v2.12A3.9 3.9 0 0 1 80.11 80H80a1 1 0 0 0-1 1v4H21v-4a1 1 0 0 0-1-1h-.11A3.9 3.9 0 0 1 16 76.14V74a1 1 0 0 0-1-1h-4V43h13v4a1 1 0 0 0 1 1h5a1 1 0 0 0 1-1v-4h38v4a1 1 0 0 0 1 1h5a1 1 0 0 0 1-1v-4h13ZM26 46v-8h3v8Zm45 0v-8h3v8Zm18-5H76v-4a1 1 0 0 0-1-1h-5a1 1 0 0 0-1 1v4H31v-4a1 1 0 0 0-1-1h-5a1 1 0 0 0-1 1v4H11v-4.49A9.48 9.48 0 0 1 20.47 27h59.06A9.48 9.48 0 0 1 89 36.51Z"/>
  <path d="M71.87 51.67a11.2 11.2 0 0 0-8.23 3.65 12.34 12.34 0 0 0-2 2.85H38.31a12.34 12.34 0 0 0-2-2.85 11.19 11.19 0 0 0-8.23-3.64 11.29 11.29 0 0 0-8.9 4.45 1 1 0 0 0-.12 1.05 1 1 0 0 0 .9.56h5.78l2.31 6.3-2.3 6.31H20a1 1 0 0 0-.9.57 1 1 0 0 0 .12 1 11.31 11.31 0 0 0 8.9 4.44 11.21 11.21 0 0 0 8.23-3.66 12.07 12.07 0 0 0 2-2.84h23.33a12.34 12.34 0 0 0 2 2.85 11.23 11.23 0 0 0 8.23 3.64A11.32 11.32 0 0 0 80.79 72a1 1 0 0 0 .12-1 1 1 0 0 0-.9-.57h-5.78L71.92 64l2.3-6.3H80a1 1 0 0 0 .9-.56 1 1 0 0 0-.12-1 11.31 11.31 0 0 0-8.9-4.44Zm-37 19.74a9.28 9.28 0 0 1-6.77 3 9.11 9.11 0 0 1-5.74-2.06h4.1a1 1 0 0 0 .94-.66l2.66-7.31a.89.89 0 0 0 0-.68l-2.67-7.3a1 1 0 0 0-.94-.66h-4.1a9.17 9.17 0 0 1 5.74-2.06 9.23 9.23 0 0 1 6.77 3 10.95 10.95 0 0 1 0 14.7Zm4.24-3.48a13 13 0 0 0 0-7.74h21.72a13 13 0 0 0 0 7.74Zm34.38-12.2a1 1 0 0 0-.94.66l-2.66 7.3a.92.92 0 0 0 0 .69l2.67 7.3a1 1 0 0 0 .94.66h4.1a9.17 9.17 0 0 1-5.74 2.06 9.23 9.23 0 0 1-6.77-3 10.95 10.95 0 0 1 0-14.7 9.2 9.2 0 0 1 6.77-3 9.11 9.11 0 0 1 5.74 2.06Z"/>
</svg>
