<svg xmlns="http://www.w3.org/2000/svg" fill="currentColor" xml:space="preserve" viewBox="0 0 100 100">
  <path d="M82.75 15.06c-5.25 0-9.53 4.27-9.53 9.52 0 5.26 4.28 9.53 9.53 9.53 5.24 0 9.5-4.27 9.5-9.53 0-5.25-4.26-9.52-9.5-9.52zm0 17.05c-4.15 0-7.53-3.38-7.53-7.53s3.38-7.52 7.53-7.52c4.14 0 7.5 3.37 7.5 7.52s-3.36 7.53-7.5 7.53zM93.63 72.82h-8.39A5.806 5.806 0 0 0 86.68 69c0-3.21-2.61-5.82-5.82-5.82H35.75V33.34c0-.11-.03-.22-.06-.31h25.28c.29 0 .57-.13.76-.35s.27-.51.23-.79C60.08 18.39 48.38 8.21 34.75 8.21S9.42 18.39 7.54 31.89c-.04.28.04.57.23.79s.47.35.76.35h25.28c-.03.09-.06.2-.06.31v27.04L22.09 40.87c-1.73-2.91-5.39-3.58-7.97-2a5.806 5.806 0 0 0-2.02 7.97l15.02 25.15c.18.3.39.57.62.83h-4.45L3.87 38.19a.99.99 0 0 0-1.36-.38 1 1 0 0 0-.38 1.36l12.99 23.16-2.9 12.56c-.25.5-.4 1.06-.4 1.65v5.71c0 .55.44 1 1 1h5.24v6.18c0 1.3 1.06 2.36 2.36 2.36h6.02c1.3 0 2.36-1.06 2.36-2.36v-6.18h51.58v6.18c0 1.3 1.06 2.36 2.36 2.36h6.02c1.3 0 2.36-1.06 2.36-2.36v-6.18h5.24c.55 0 1-.45 1-1v-5.71c0-2.05-1.67-3.72-3.73-3.72zM59.8 31.03H46.2c-.65-9.24-3.15-16.66-6.55-20.33 10.08 2 18.22 10.01 20.15 20.33zm-36.5 0H9.7C11.63 20.71 19.77 12.7 29.85 10.7c-3.4 3.67-5.9 11.09-6.55 20.33zm2.01 0c.86-11.76 4.93-20.82 9.44-20.82s8.59 9.06 9.44 20.82H25.31zM13.82 45.81a3.796 3.796 0 0 1 1.33-5.23 3.798 3.798 0 0 1 5.22 1.32L34 64.7c.18.3.51.48.86.48h46a3.82 3.82 0 1 1 0 7.64H32.12c-.24 0-.47-.03-.72-.08-1.06-.19-2-.84-2.56-1.78L13.82 45.81zm2.75 19.12 4.42 7.89h-5.45c-.28 0-.55.03-.81.09l1.84-7.98zm10.23 24.5c0 .2-.16.36-.36.36h-6.02c-.2 0-.36-.16-.36-.36v-6.17h6.74v6.17zm62.32 0c0 .2-.16.36-.36.36h-6.02c-.2 0-.36-.16-.36-.36v-6.17h6.74v6.17zm6.24-8.18H13.82v-4.71c0-.95.77-1.72 1.72-1.72h78.09c.96 0 1.73.77 1.73 1.72v4.71zM82.738 13.2a1 1 0 0 0 1-1v-1.873a1 1 0 1 0-2 0V12.2a1 1 0 0 0 1 1zM81.738 36.975v1.873a1 1 0 1 0 2 0v-1.873a1 1 0 1 0-2 0zM92.204 16.535l1.325-1.324a1 1 0 1 0-1.415-1.414L90.79 15.12a1 1 0 1 0 1.414 1.414zM73.362 35.378l1.324-1.324a1 1 0 1 0-1.414-1.414l-1.325 1.324a1 1 0 1 0 1.415 1.414zM96.998 23.588h-1.873a1 1 0 1 0 0 2h1.873a1 1 0 1 0 0-2zM68.478 25.588h1.873a1 1 0 1 0 0-2h-1.873a1 1 0 1 0 0 2zM92.204 32.64a1 1 0 1 0-1.414 1.414l1.324 1.324a1 1 0 1 0 1.414-1.414l-1.324-1.324zM73.272 16.535a1 1 0 1 0 1.414-1.414l-1.324-1.324a1 1 0 1 0-1.415 1.414l1.325 1.324z"/>
</svg>
