<svg xmlns="http://www.w3.org/2000/svg" fill="currentColor" xml:space="preserve" fill-rule="evenodd" clip-rule="evenodd" image-rendering="optimizeQuality" shape-rendering="geometricPrecision" text-rendering="geometricPrecision" viewBox="0 0 296 296">
  <path d="m77 29 11 6 7 12c1 3 6 3 8 0l6-12 12-6c3-2 3-7 0-9l-12-6-6-11c-2-4-6-4-8 0l-7 11-11 6c-4 2-4 7 0 9zm106 35h10c6 0 6-10 0-10h-10c-7 0-7 10 0 10zm110 95c-11-39-43-69-83-78l26-39c1-2 1-4 0-6-3-4-38-30-45-35-2-1-5-1-6 0-13 10-34 24-45 35-2 1-2 4-1 6l26 39c-6 2-11 3-17 5-45-17-97-3-126 36s-29 92 0 131c2 2 3 4 5 6 30 34 78 46 121 30 41 15 87 5 117-26 27-27 38-66 28-104zM152 44h36c6 0 6-9 0-9h-30l30-24 30 24h-11c-6 0-6 9 0 9h16l-24 36c-3-1-7-1-11-1s-8 0-12 1l-24-36zM49 266c-6-4-11-9-16-15-37-44-28-113 21-146 27-18 62-21 92-9 10 4 19 10 28 17 44 39 45 108 1 147-6-1-11-2-17-5 49-35 45-110-7-140-10-6-20-9-31-11h-11c-72 0-109 83-65 137 18 21 46 33 74 30 5 4 11 8 17 11-29 9-61 3-86-16zm139-152v-1c66 2 97 81 51 127-13 13-31 21-51 21 39-41 39-106 0-147zm-40 136c-46-29-46-96 0-125 46 29 46 96 0 125zm-40-136c-39 41-39 106 0 147-22 0-42-11-56-27-37-47-6-119 56-120zm169 115c-5 11-12 20-20 28-50 50-135 33-161-34-15-38-5-81 25-108 6 1 12 2 17 5-49 35-45 110 8 140 9 5 19 9 30 10 26 4 54-5 72-24 51-53 14-142-60-142h-10c-5-4-11-8-17-12 37-10 77 2 102 32 25 29 30 70 14 105zM249 68l12 7 6 11c2 4 7 4 9 0l6-11 12-7c3-1 3-6 0-8l-12-6-6-12c-2-3-7-3-9 0l-6 12-12 6c-3 2-3 7 0 8zm18-7c1 0 1-1 2-1l3-5 2 5c1 0 1 1 2 1l5 3-5 3c-1 0-1 1-2 2l-2 5-3-5c-1-1-1-2-2-2l-5-3 5-3zM94 22c1 0 2-1 2-2l3-5 3 5c0 1 1 2 1 2l5 3-5 2c0 1-1 1-2 2l-2 5-3-5c0-1-1-1-2-2l-5-2 5-3z"/>
</svg>
